<svg width="40" height="40" viewBox="0 0 40 40" fill="none" xmlns="http://www.w3.org/2000/svg">
<path d="M11.1667 31.25H6.91669C3.85002 31.25 2.08331 29.4833 2.08331 26.4166V6.91672C2.08331 3.85005 3.85002 2.08334 6.91669 2.08334H14.0833C17.15 2.08334 18.9166 3.85005 18.9166 6.91672V10C18.9166 10.6833 18.3499 11.25 17.6666 11.25C16.9833 11.25 16.4166 10.6833 16.4166 10V6.91672C16.4166 5.21672 15.7833 4.58334 14.0833 4.58334H6.91669C5.21669 4.58334 4.58331 5.21672 4.58331 6.91672V26.4166C4.58331 28.1166 5.21669 28.75 6.91669 28.75H11.1667C11.85 28.75 12.4167 29.3167 12.4167 30C12.4167 30.6833 11.85 31.25 11.1667 31.25Z" fill="white"/>
<path d="M24.9337 37.9167H15.2003C11.8503 37.9167 9.91699 35.9834 9.91699 32.6334V14.0333C9.91699 10.6833 11.8503 8.75 15.2003 8.75H24.9337C28.2837 8.75 30.2003 10.6833 30.2003 14.0333V32.6334C30.2003 35.9834 28.2837 37.9167 24.9337 37.9167ZM15.2003 11.25C13.2003 11.25 12.417 12.0333 12.417 14.0333V32.6334C12.417 34.6334 13.2003 35.4167 15.2003 35.4167H24.9337C26.917 35.4167 27.7003 34.6334 27.7003 32.6334V14.0333C27.7003 12.0333 26.917 11.25 24.9337 11.25H15.2003Z" fill="white"/>
<path d="M33.0831 31.25H28.9498C28.2664 31.25 27.6998 30.6833 27.6998 30C27.6998 29.3167 28.2664 28.75 28.9498 28.75H33.0831C34.7831 28.75 35.4165 28.1166 35.4165 26.4166V6.91672C35.4165 5.21672 34.7831 4.58334 33.0831 4.58334H25.9164C24.2164 4.58334 23.5832 5.21672 23.5832 6.91672V10C23.5832 10.6833 23.0165 11.25 22.3332 11.25C21.6498 11.25 21.0832 10.6833 21.0832 10V6.91672C21.0832 3.85005 22.8498 2.08334 25.9164 2.08334H33.0831C36.1497 2.08334 37.9165 3.85005 37.9165 6.91672V26.4166C37.9165 29.4833 36.1497 31.25 33.0831 31.25Z" fill="white"/>
<path d="M23.3333 19.5833H16.6667C15.9833 19.5833 15.4167 19.0167 15.4167 18.3333C15.4167 17.65 15.9833 17.0833 16.6667 17.0833H23.3333C24.0167 17.0833 24.5833 17.65 24.5833 18.3333C24.5833 19.0167 24.0167 19.5833 23.3333 19.5833Z" fill="white"/>
<path d="M23.3333 24.5833H16.6667C15.9833 24.5833 15.4167 24.0167 15.4167 23.3333C15.4167 22.65 15.9833 22.0833 16.6667 22.0833H23.3333C24.0167 22.0833 24.5833 22.65 24.5833 23.3333C24.5833 24.0167 24.0167 24.5833 23.3333 24.5833Z" fill="white"/>
<path d="M20 37.9167C19.3167 37.9167 18.75 37.35 18.75 36.6667V31.6667C18.75 30.9833 19.3167 30.4167 20 30.4167C20.6833 30.4167 21.25 30.9833 21.25 31.6667V36.6667C21.25 37.35 20.6833 37.9167 20 37.9167Z" fill="white"/>
</svg>
