<svg width="304" height="69" viewBox="0 0 304 69" fill="none" xmlns="http://www.w3.org/2000/svg">
<g filter="url(#filter0_b_2547_2486)">
<rect x="1" y="1" width="302" height="67" rx="31" fill="#282D40" fill-opacity="0.39"/>
<rect x="0.5" y="0.5" width="303" height="68" rx="31.5" stroke="url(#paint0_linear_2547_2486)"/>
</g>
<path d="M97.22 43L102.36 28.1H105.88L111.02 43H108.06L107 39.8H101.24L100.16 43H97.22ZM102.02 37.4H106.22L103.74 29.98H104.5L102.02 37.4ZM112.258 43V27.86H114.878V43H112.258ZM117.097 43V32.12H119.717V43H117.097ZM117.097 30.9V28.1H119.717V30.9H117.097ZM125.511 43V28.1H128.231V34.6H134.571V28.1H137.311V43H134.571V37H128.231V43H125.511ZM140.999 43V40.2H143.639V43H140.999ZM149.472 43L154.612 28.1H158.132L163.272 43H160.312L159.252 39.8H153.492L152.412 43H149.472ZM154.272 37.4H158.472L155.992 29.98H156.752L154.272 37.4ZM164.731 43V28.1H167.451V40.6H173.831V43H164.731ZM175.39 43V28.1H178.11V35.86L177.37 35.6L183.71 28.1H187.13L181.19 35.14L181.35 33.22L187.31 43H184.11L180.11 36.44L178.11 38.82V43H175.39ZM188.764 43V28.1H191.484V34.6H197.824V28.1H200.564V43H197.824V37H191.484V43H188.764ZM202.012 43L207.152 28.1H210.672L215.812 43H212.852L211.792 39.8H206.032L204.952 43H202.012ZM206.812 37.4H211.012L208.532 29.98H209.292L206.812 37.4ZM217.27 43V28.1H219.99V40.6H226.37V43H217.27ZM227.93 43V28.1H232.79C234.363 28.1 235.73 28.42 236.89 29.06C238.063 29.6867 238.97 30.56 239.61 31.68C240.25 32.7867 240.57 34.0733 240.57 35.54C240.57 36.9933 240.25 38.2867 239.61 39.42C238.97 40.54 238.063 41.42 236.89 42.06C235.73 42.6867 234.363 43 232.79 43H227.93ZM230.65 40.6H232.85C233.863 40.6 234.737 40.3933 235.47 39.98C236.217 39.5533 236.797 38.9667 237.21 38.22C237.623 37.46 237.83 36.5667 237.83 35.54C237.83 34.5 237.623 33.6067 237.21 32.86C236.797 32.1133 236.217 31.5333 235.47 31.12C234.737 30.7067 233.863 30.5 232.85 30.5H230.65V40.6ZM242.535 43V28.1H245.255V43H242.535Z" fill="url(#paint1_linear_2547_2486)"/>
<path d="M29.44 43.24C28.3733 43.24 27.3867 43.0467 26.48 42.66C25.5867 42.2733 24.8 41.7333 24.12 41.04C23.4533 40.3467 22.9333 39.5333 22.56 38.6C22.1867 37.6667 22 36.6467 22 35.54C22 34.4333 22.18 33.4133 22.54 32.48C22.9133 31.5333 23.4333 30.72 24.1 30.04C24.78 29.3467 25.5733 28.8133 26.48 28.44C27.3867 28.0533 28.3733 27.86 29.44 27.86C30.5067 27.86 31.46 28.04 32.3 28.4C33.1533 28.76 33.8733 29.24 34.46 29.84C35.0467 30.4267 35.4667 31.0733 35.72 31.78L33.28 32.92C33 32.1733 32.5267 31.56 31.86 31.08C31.1933 30.5867 30.3867 30.34 29.44 30.34C28.5067 30.34 27.68 30.56 26.96 31C26.2533 31.44 25.7 32.0467 25.3 32.82C24.9133 33.5933 24.72 34.5 24.72 35.54C24.72 36.58 24.9133 37.4933 25.3 38.28C25.7 39.0533 26.2533 39.66 26.96 40.1C27.68 40.54 28.5067 40.76 29.44 40.76C30.3867 40.76 31.1933 40.52 31.86 40.04C32.5267 39.5467 33 38.9267 33.28 38.18L35.72 39.32C35.4667 40.0267 35.0467 40.68 34.46 41.28C33.8733 41.8667 33.1533 42.34 32.3 42.7C31.46 43.06 30.5067 43.24 29.44 43.24ZM37.7283 43V28.1H47.6283V30.5H40.4483V34.32H47.2283V36.72H40.4483V40.6H47.6283V43H37.7283ZM56.7628 43.24C55.6695 43.24 54.6495 43.0467 53.7028 42.66C52.7561 42.2733 51.9295 41.7333 51.2228 41.04C50.5161 40.3467 49.9628 39.5333 49.5628 38.6C49.1761 37.6533 48.9828 36.6333 48.9828 35.54C48.9828 34.4333 49.1761 33.4133 49.5628 32.48C49.9495 31.5467 50.4961 30.7333 51.2028 30.04C51.9095 29.3467 52.7361 28.8133 53.6828 28.44C54.6295 28.0533 55.6561 27.86 56.7628 27.86C57.8695 27.86 58.8961 28.0533 59.8428 28.44C60.7895 28.8267 61.6161 29.3667 62.3228 30.06C63.0295 30.74 63.5761 31.5467 63.9628 32.48C64.3628 33.4133 64.5628 34.4333 64.5628 35.54C64.5628 36.6333 64.3628 37.6533 63.9628 38.6C63.5628 39.5333 63.0095 40.3467 62.3028 41.04C61.5961 41.7333 60.7695 42.2733 59.8228 42.66C58.8895 43.0467 57.8695 43.24 56.7628 43.24ZM56.7628 40.76C57.4961 40.76 58.1695 40.6333 58.7828 40.38C59.3961 40.1133 59.9295 39.7467 60.3828 39.28C60.8495 38.8133 61.2028 38.26 61.4428 37.62C61.6961 36.98 61.8228 36.2867 61.8228 35.54C61.8228 34.7933 61.6961 34.1067 61.4428 33.48C61.2028 32.84 60.8495 32.2867 60.3828 31.82C59.9295 31.34 59.3961 30.9733 58.7828 30.72C58.1695 30.4667 57.4961 30.34 56.7628 30.34C56.0428 30.34 55.3761 30.4667 54.7628 30.72C54.1495 30.9733 53.6095 31.34 53.1428 31.82C52.6895 32.2867 52.3361 32.84 52.0828 33.48C51.8295 34.1067 51.7028 34.7933 51.7028 35.54C51.7028 36.2867 51.8295 36.98 52.0828 37.62C52.3361 38.26 52.6895 38.8133 53.1428 39.28C53.6095 39.7467 54.1495 40.1133 54.7628 40.38C55.3761 40.6333 56.0428 40.76 56.7628 40.76Z" fill="url(#paint2_linear_2547_2486)"/>
<line x1="82.5" y1="23" x2="82.5" y2="47" stroke="white" stroke-opacity="0.33"/>
<defs>
<filter id="filter0_b_2547_2486" x="-30" y="-30" width="364" height="129" filterUnits="userSpaceOnUse" color-interpolation-filters="sRGB">
<feFlood flood-opacity="0" result="BackgroundImageFix"/>
<feGaussianBlur in="BackgroundImageFix" stdDeviation="15"/>
<feComposite in2="SourceAlpha" operator="in" result="effect1_backgroundBlur_2547_2486"/>
<feBlend mode="normal" in="SourceGraphic" in2="effect1_backgroundBlur_2547_2486" result="shape"/>
</filter>
<linearGradient id="paint0_linear_2547_2486" x1="1.00001" y1="0.960573" x2="25.2753" y2="124.003" gradientUnits="userSpaceOnUse">
<stop stop-color="#29313F" stop-opacity="0"/>
<stop offset="0.300097" stop-color="#397EF5"/>
<stop offset="1" stop-color="#29313F" stop-opacity="0"/>
</linearGradient>
<linearGradient id="paint1_linear_2547_2486" x1="97" y1="34.5" x2="272.193" y2="34.5" gradientUnits="userSpaceOnUse">
<stop offset="0.675" stop-color="white"/>
<stop offset="1" stop-color="#635E5E"/>
</linearGradient>
<linearGradient id="paint2_linear_2547_2486" x1="21" y1="34.5" x2="74.3702" y2="34.5" gradientUnits="userSpaceOnUse">
<stop offset="0.675" stop-color="white"/>
<stop offset="1" stop-color="#635E5E"/>
</linearGradient>
</defs>
</svg>
