<svg width="30" height="30" viewBox="0 0 30 30" fill="none" xmlns="http://www.w3.org/2000/svg">
<path d="M6.92547 24.4C6.16297 24.4 5.45047 24.1375 4.93797 23.65C4.28797 23.0375 3.97547 22.1125 4.08797 21.1125L4.55047 17.0625C4.63797 16.3 5.10047 15.2875 5.63797 14.7375L15.9005 3.875C18.463 1.1625 21.138 1.0875 23.8505 3.65C26.563 6.2125 26.638 8.8875 24.0755 11.6L13.813 22.4625C13.288 23.025 12.313 23.55 11.5505 23.675L7.52547 24.3625C7.31297 24.375 7.12547 24.4 6.92547 24.4ZM19.913 3.6375C18.9505 3.6375 18.113 4.2375 17.263 5.1375L7.00047 16.0125C6.75047 16.275 6.46297 16.9 6.41297 17.2625L5.95047 21.3125C5.90047 21.725 6.00047 22.0625 6.22547 22.275C6.45047 22.4875 6.78797 22.5625 7.20047 22.5L11.2255 21.8125C11.588 21.75 12.188 21.425 12.438 21.1625L22.7005 10.3C24.2505 8.65 24.813 7.125 22.5505 5C21.5505 4.0375 20.688 3.6375 19.913 3.6375Z" fill="white"/>
<path d="M21.6746 13.6875C21.6496 13.6875 21.6121 13.6875 21.5871 13.6875C17.6871 13.3 14.5496 10.3375 13.9496 6.4625C13.8746 5.95 14.2246 5.47499 14.7371 5.38749C15.2496 5.31249 15.7246 5.6625 15.8121 6.175C16.2871 9.2 18.7371 11.525 21.7871 11.825C22.2996 11.875 22.6746 12.3375 22.6246 12.85C22.5621 13.325 22.1496 13.6875 21.6746 13.6875Z" fill="white"/>
<path d="M26.25 28.4375H3.75C3.2375 28.4375 2.8125 28.0125 2.8125 27.5C2.8125 26.9875 3.2375 26.5625 3.75 26.5625H26.25C26.7625 26.5625 27.1875 26.9875 27.1875 27.5C27.1875 28.0125 26.7625 28.4375 26.25 28.4375Z" fill="white"/>
</svg>
