<svg width="60" height="60" viewBox="0 0 60 60" fill="none" xmlns="http://www.w3.org/2000/svg">
<circle cx="30" cy="30" r="30" fill="#1A1D41"/>
<path d="M35 39.25H25C21.35 39.25 19.25 37.15 19.25 33.5V26.5C19.25 22.85 21.35 20.75 25 20.75H35C38.65 20.75 40.75 22.85 40.75 26.5V33.5C40.75 37.15 38.65 39.25 35 39.25ZM25 22.25C22.14 22.25 20.75 23.64 20.75 26.5V33.5C20.75 36.36 22.14 37.75 25 37.75H35C37.86 37.75 39.25 36.36 39.25 33.5V26.5C39.25 23.64 37.86 22.25 35 22.25H25Z" fill="white"/>
<path d="M29.9998 30.87C29.1598 30.87 28.3098 30.61 27.6598 30.08L24.5298 27.58C24.2098 27.32 24.1498 26.85 24.4098 26.53C24.6698 26.21 25.1398 26.15 25.4598 26.41L28.5898 28.91C29.3498 29.52 30.6398 29.52 31.3998 28.91L34.5298 26.41C34.8498 26.15 35.3298 26.2 35.5798 26.53C35.8398 26.85 35.7898 27.33 35.4598 27.58L32.3298 30.08C31.6898 30.61 30.8398 30.87 29.9998 30.87Z" fill="white"/>
</svg>
