<svg width="40" height="40" viewBox="0 0 40 40" fill="none" xmlns="http://www.w3.org/2000/svg">
<path d="M29.2673 29.95H10.734C4.10065 29.95 2.08398 27.9333 2.08398 21.3V10.7333C2.08398 4.1 4.10065 2.08333 10.734 2.08333H29.2507C35.884 2.08333 37.9007 4.1 37.9007 10.7333V21.2833C37.9173 27.9333 35.9007 29.95 29.2673 29.95ZM10.734 4.58333C5.50065 4.58333 4.58398 5.5 4.58398 10.7333V21.2833C4.58398 26.5167 5.50065 27.4333 10.734 27.4333H29.2507C34.484 27.4333 35.4007 26.5167 35.4007 21.2833V10.7333C35.4007 5.5 34.484 4.58333 29.2507 4.58333H10.734Z" fill="white"/>
<path d="M20 37.9167C19.3167 37.9167 18.75 37.35 18.75 36.6667V28.7C18.75 28.0167 19.3167 27.45 20 27.45C20.6833 27.45 21.25 28.0167 21.25 28.7V36.6667C21.25 37.35 20.6833 37.9167 20 37.9167Z" fill="white"/>
<path d="M36.6673 22.9167H3.33398C2.65065 22.9167 2.08398 22.35 2.08398 21.6667C2.08398 20.9833 2.65065 20.4167 3.33398 20.4167H36.6673C37.3507 20.4167 37.9173 20.9833 37.9173 21.6667C37.9173 22.35 37.3507 22.9167 36.6673 22.9167Z" fill="white"/>
<path d="M27.5 37.9167H12.5C11.8167 37.9167 11.25 37.35 11.25 36.6667C11.25 35.9833 11.8167 35.4167 12.5 35.4167H27.5C28.1833 35.4167 28.75 35.9833 28.75 36.6667C28.75 37.35 28.1833 37.9167 27.5 37.9167Z" fill="white"/>
</svg>
