<svg width="40" height="40" viewBox="0 0 40 40" fill="none" xmlns="http://www.w3.org/2000/svg">
<path d="M19.6493 19.8C18.7493 19.8 17.8327 19.6333 17.116 19.3167L7.28268 14.95C4.78268 13.8333 4.41602 12.3333 4.41602 11.5167C4.41602 10.7 4.78268 9.2 7.28268 8.08333L17.116 3.71667C18.566 3.06667 20.7493 3.06667 22.1993 3.71667L32.0493 8.08333C34.5327 9.18333 34.916 10.7 34.916 11.5167C34.916 12.3333 34.5493 13.8333 32.0493 14.95L22.1993 19.3167C21.466 19.65 20.566 19.8 19.6493 19.8ZM19.6493 5.73333C19.0827 5.73333 18.5327 5.81667 18.1327 6L8.29935 10.3667C7.28268 10.8333 6.91602 11.3 6.91602 11.5167C6.91602 11.7333 7.28268 12.2167 8.28268 12.6667L18.116 17.0333C18.916 17.3833 20.366 17.3833 21.166 17.0333L31.016 12.6667C32.0327 12.2167 32.3993 11.7333 32.3993 11.5167C32.3993 11.3 32.0327 10.8167 31.016 10.3667L21.1827 6C20.7827 5.83333 20.216 5.73333 19.6493 5.73333Z" fill="white"/>
<path d="M20 28.4833C19.3667 28.4833 18.7333 28.35 18.1333 28.0833L6.81667 23.05C5.1 22.3 3.75 20.2167 3.75 18.3333C3.75 17.65 4.31667 17.0833 5 17.0833C5.68333 17.0833 6.25 17.65 6.25 18.3333C6.25 19.25 7 20.4 7.83333 20.7833L19.15 25.8167C19.6833 26.05 20.3 26.05 20.85 25.8167L32.1667 20.7833C33 20.4167 33.75 19.25 33.75 18.3333C33.75 17.65 34.3167 17.0833 35 17.0833C35.6833 17.0833 36.25 17.65 36.25 18.3333C36.25 20.2167 34.9 22.3 33.1833 23.0667L21.8667 28.1C21.2667 28.35 20.6333 28.4833 20 28.4833Z" fill="white"/>
<path d="M20 36.8167C19.3667 36.8167 18.7333 36.6833 18.1333 36.4167L6.81667 31.3833C4.95 30.55 3.75 28.7 3.75 26.65C3.75 25.9667 4.31667 25.4 5 25.4C5.68333 25.4 6.25 25.9833 6.25 26.6667C6.25 27.7167 6.86667 28.6833 7.83333 29.1167L19.15 34.15C19.6833 34.3833 20.3 34.3833 20.85 34.15L32.1667 29.1167C33.1333 28.6833 33.75 27.7333 33.75 26.6667C33.75 25.9833 34.3167 25.4167 35 25.4167C35.6833 25.4167 36.25 25.9833 36.25 26.6667C36.25 28.7167 35.05 30.5667 33.1833 31.4L21.8667 36.4333C21.2667 36.6833 20.6333 36.8167 20 36.8167Z" fill="white"/>
</svg>
