<svg width="40" height="40" viewBox="0 0 40 40" fill="none" xmlns="http://www.w3.org/2000/svg">
<path d="M8.33398 14.5833C4.88398 14.5833 2.08398 11.7833 2.08398 8.33333C2.08398 4.88333 4.88398 2.08333 8.33398 2.08333C11.784 2.08333 14.584 4.88333 14.584 8.33333C14.584 11.7833 11.784 14.5833 8.33398 14.5833ZM8.33398 4.58333C6.26732 4.58333 4.58398 6.26667 4.58398 8.33333C4.58398 10.4 6.26732 12.0833 8.33398 12.0833C10.4007 12.0833 12.084 10.4 12.084 8.33333C12.084 6.26667 10.4007 4.58333 8.33398 4.58333Z" fill="white"/>
<path d="M31.666 26.25C28.216 26.25 25.416 23.45 25.416 20C25.416 16.55 28.216 13.75 31.666 13.75C35.116 13.75 37.916 16.55 37.916 20C37.916 23.45 35.116 26.25 31.666 26.25ZM31.666 16.25C29.5993 16.25 27.916 17.9333 27.916 20C27.916 22.0667 29.5993 23.75 31.666 23.75C33.7327 23.75 35.416 22.0667 35.416 20C35.416 17.9333 33.7327 16.25 31.666 16.25Z" fill="white"/>
<path d="M8.33398 37.9167C4.88398 37.9167 2.08398 35.1167 2.08398 31.6667C2.08398 28.2167 4.88398 25.4167 8.33398 25.4167C11.784 25.4167 14.584 28.2167 14.584 31.6667C14.584 35.1167 11.784 37.9167 8.33398 37.9167ZM8.33398 27.9167C6.26732 27.9167 4.58398 29.6 4.58398 31.6667C4.58398 33.7333 6.26732 35.4167 8.33398 35.4167C10.4007 35.4167 12.084 33.7333 12.084 31.6667C12.084 29.6 10.4007 27.9167 8.33398 27.9167Z" fill="white"/>
<path d="M8.33398 27.9167C7.65065 27.9167 7.08398 27.35 7.08398 26.6667V13.3333C7.08398 12.65 7.65065 12.0833 8.33398 12.0833C9.01732 12.0833 9.58398 12.65 9.58398 13.3333C9.58398 16.9833 11.3507 18.75 15.0007 18.75H26.6673C27.3507 18.75 27.9173 19.3167 27.9173 20C27.9173 20.6833 27.3507 21.25 26.6673 21.25H15.0007C12.734 21.25 10.9173 20.6666 9.58398 19.5666V26.6667C9.58398 27.35 9.01732 27.9167 8.33398 27.9167Z" fill="white"/>
</svg>
