<svg width="40" height="40" viewBox="0 0 40 40" fill="none" xmlns="http://www.w3.org/2000/svg">
<path d="M33.3333 24.5833C30.8 24.5833 28.75 22.5333 28.75 20C28.75 17.4667 30.8 15.4167 33.3333 15.4167C35.8667 15.4167 37.9167 17.4667 37.9167 20C37.9167 22.5333 35.8667 24.5833 33.3333 24.5833ZM33.3333 17.9167C32.1833 17.9167 31.25 18.85 31.25 20C31.25 21.15 32.1833 22.0833 33.3333 22.0833C34.4833 22.0833 35.4167 21.15 35.4167 20C35.4167 18.85 34.4833 17.9167 33.3333 17.9167Z" fill="white"/>
<path d="M33.3333 11.25C30.8 11.25 28.75 9.2 28.75 6.66667C28.75 4.13333 30.8 2.08333 33.3333 2.08333C35.8667 2.08333 37.9167 4.13333 37.9167 6.66667C37.9167 9.2 35.8667 11.25 33.3333 11.25ZM33.3333 4.58333C32.1833 4.58333 31.25 5.51667 31.25 6.66667C31.25 7.81667 32.1833 8.75 33.3333 8.75C34.4833 8.75 35.4167 7.81667 35.4167 6.66667C35.4167 5.51667 34.4833 4.58333 33.3333 4.58333Z" fill="white"/>
<path d="M33.3333 37.9167C30.8 37.9167 28.75 35.8667 28.75 33.3333C28.75 30.8 30.8 28.75 33.3333 28.75C35.8667 28.75 37.9167 30.8 37.9167 33.3333C37.9167 35.8667 35.8667 37.9167 33.3333 37.9167ZM33.3333 31.25C32.1833 31.25 31.25 32.1833 31.25 33.3333C31.25 34.4833 32.1833 35.4167 33.3333 35.4167C34.4833 35.4167 35.4167 34.4833 35.4167 33.3333C35.4167 32.1833 34.4833 31.25 33.3333 31.25Z" fill="white"/>
<path d="M6.66732 24.5833C4.13398 24.5833 2.08398 22.5333 2.08398 20C2.08398 17.4667 4.13398 15.4167 6.66732 15.4167C9.20065 15.4167 11.2507 17.4667 11.2507 20C11.2507 22.5333 9.20065 24.5833 6.66732 24.5833ZM6.66732 17.9167C5.51732 17.9167 4.58398 18.85 4.58398 20C4.58398 21.15 5.51732 22.0833 6.66732 22.0833C7.81732 22.0833 8.75065 21.15 8.75065 20C8.75065 18.85 7.81732 17.9167 6.66732 17.9167Z" fill="white"/>
<path d="M30 21.25H10C9.31667 21.25 8.75 20.6833 8.75 20C8.75 19.3167 9.31667 18.75 10 18.75H30C30.6833 18.75 31.25 19.3167 31.25 20C31.25 20.6833 30.6833 21.25 30 21.25Z" fill="white"/>
<path d="M30.0007 34.5833H23.334C19.3007 34.5833 17.084 32.3667 17.084 28.3333V11.6667C17.084 7.63333 19.3007 5.41667 23.334 5.41667H30.0007C30.684 5.41667 31.2507 5.98333 31.2507 6.66667C31.2507 7.35 30.684 7.91667 30.0007 7.91667H23.334C20.7007 7.91667 19.584 9.03333 19.584 11.6667V28.3333C19.584 30.9667 20.7007 32.0833 23.334 32.0833H30.0007C30.684 32.0833 31.2507 32.65 31.2507 33.3333C31.2507 34.0167 30.684 34.5833 30.0007 34.5833Z" fill="white"/>
</svg>
