<svg width="40" height="40" viewBox="0 0 40 40" fill="none" xmlns="http://www.w3.org/2000/svg">
<path d="M23.584 37.9167H16.4507C14.7507 37.9167 13.184 37.2 12.184 35.9333C11.3007 34.8333 10.984 33.4333 11.284 32.1L12.434 26.9667C12.5674 26.4 13.0674 26 13.6507 26H26.384C26.9674 26 27.4674 26.4 27.6007 26.9667L28.7674 32.1C29.084 33.5333 28.784 34.9167 27.9174 36C26.9507 37.2167 25.3674 37.9167 23.584 37.9167ZM14.6507 28.5L13.7174 32.6667C13.584 33.2667 13.734 33.8667 14.134 34.3833C14.6507 35.0333 15.5174 35.4167 16.4507 35.4167H23.6007C24.6174 35.4167 25.484 35.0667 25.9674 34.45C26.3674 33.9667 26.484 33.3333 26.334 32.6667L25.4007 28.5H14.6507Z" fill="white"/>
<path d="M13.6506 28.5C13.3506 28.5 13.0506 28.4 12.8173 28.1833L7.91726 23.8333C4.70059 21.1833 4.43392 18.6167 7.08392 15.25L15.7339 4.28333C16.8506 2.86667 18.3839 2.08333 20.0173 2.08333C21.6673 2.08333 23.1839 2.86667 24.3006 4.28333L32.9506 15.25C35.5673 18.5667 35.3339 20.9833 32.1173 23.8333L27.2173 28.1833C26.7006 28.6333 25.9006 28.6 25.4506 28.0833C25.0006 27.5667 25.0339 26.7833 25.5506 26.3167L30.4506 21.9667C32.6506 20.0167 32.7506 19.05 30.9839 16.8L22.3506 5.83333C21.0839 4.21667 18.9673 4.21667 17.7006 5.83333L9.05059 16.8C7.23392 19.1 7.31726 20.1167 9.53392 21.9333L14.4673 26.3167C14.9839 26.7667 15.0339 27.5667 14.5673 28.0833C14.3339 28.35 14.0006 28.5 13.6506 28.5Z" fill="white"/>
<path d="M20.0176 12.8667C19.3342 12.8667 18.7676 12.3 18.7676 11.6167V4.45C18.7676 3.76667 19.3342 3.2 20.0176 3.2C20.7009 3.2 21.2676 3.76667 21.2676 4.45V11.6167C21.2676 12.3 20.7009 12.8667 20.0176 12.8667Z" fill="white"/>
<path d="M23.584 37.9167H16.4507C14.7507 37.9167 13.184 37.2 12.184 35.9333C11.3007 34.8333 10.984 33.4333 11.284 32.1L12.434 26.9667C12.5674 26.4 13.0674 26 13.6507 26H26.384C26.9674 26 27.4674 26.4 27.6007 26.9667L28.7674 32.1C29.084 33.5333 28.784 34.9167 27.9174 36C26.9507 37.2167 25.3674 37.9167 23.584 37.9167ZM14.6507 28.5L13.7174 32.6667C13.584 33.2667 13.734 33.8667 14.134 34.3833C14.6507 35.0333 15.5174 35.4167 16.4507 35.4167H23.6007C24.6174 35.4167 25.484 35.0667 25.9674 34.45C26.3674 33.9667 26.484 33.3333 26.334 32.6667L25.4007 28.5H14.6507Z" fill="white"/>
<path d="M13.6506 28.5C13.3506 28.5 13.0506 28.4 12.8173 28.1833L7.91726 23.8333C4.70059 21.1833 4.43392 18.6167 7.08392 15.25L15.7339 4.28333C16.8506 2.86667 18.3839 2.08333 20.0173 2.08333C21.6673 2.08333 23.1839 2.86667 24.3006 4.28333L32.9506 15.25C35.5673 18.5667 35.3339 20.9833 32.1173 23.8333L27.2173 28.1833C26.7006 28.6333 25.9006 28.6 25.4506 28.0833C25.0006 27.5667 25.0339 26.7833 25.5506 26.3167L30.4506 21.9667C32.6506 20.0167 32.7506 19.05 30.9839 16.8L22.3506 5.83333C21.0839 4.21667 18.9673 4.21667 17.7006 5.83333L9.05059 16.8C7.23392 19.1 7.31726 20.1167 9.53392 21.9333L14.4673 26.3167C14.9839 26.7667 15.0339 27.5667 14.5673 28.0833C14.3339 28.35 14.0006 28.5 13.6506 28.5Z" fill="white"/>
<path d="M20.0176 12.8667C19.3342 12.8667 18.7676 12.3 18.7676 11.6167V4.45C18.7676 3.76667 19.3342 3.2 20.0176 3.2C20.7009 3.2 21.2676 3.76667 21.2676 4.45V11.6167C21.2676 12.3 20.7009 12.8667 20.0176 12.8667Z" fill="white"/>
</svg>
