<svg width="40" height="40" viewBox="0 0 40 40" fill="none" xmlns="http://www.w3.org/2000/svg">
<path d="M27.7498 34.5833C27.7331 34.5833 27.6998 34.5833 27.6831 34.5833C26.9998 34.5833 26.4331 34.0167 26.4498 33.3167C26.4498 32.6333 27.0331 32.0167 27.7165 32.0833C29.6498 32.0833 31.4831 31.3833 32.8998 30.0833C35.4831 27.8167 35.6665 24.5833 34.9665 22.3C34.2665 20.0167 32.3165 17.4333 28.9498 17C28.3998 16.9333 27.9665 16.5167 27.8665 15.9667C27.2165 11.9833 25.0498 9.23333 21.8165 8.23333C18.4498 7.2 14.5665 8.21667 12.1331 10.7667C9.76647 13.25 9.21647 16.7 10.5831 20.5167C10.8165 21.1667 10.4831 21.8833 9.83314 22.1167C9.18314 22.35 8.46647 22.0167 8.23314 21.3667C6.5498 16.6833 7.31647 12.2 10.3331 9.05C13.4165 5.83333 18.3165 4.55 22.5665 5.86667C26.4498 7.06667 29.1998 10.2667 30.1831 14.7C33.5831 15.4667 36.2998 18.0333 37.3831 21.5833C38.5665 25.45 37.4998 29.4167 34.5998 31.95C32.6831 33.65 30.2665 34.5833 27.7498 34.5833Z" fill="white"/>
<path d="M9.28346 34.5833C9.25013 34.5833 9.2168 34.5833 9.20013 34.5833C4.40013 34.25 2.2168 30.4833 2.2168 27.1333C2.2168 23.7833 4.40013 20.0333 9.20013 19.6833C10.4668 19.7 11.6501 19.95 12.7168 20.4833C13.3335 20.8 13.5668 21.55 13.2668 22.1667C12.9501 22.7833 12.2001 23.0167 11.5835 22.7167C10.8835 22.35 10.0835 22.1833 9.3168 22.1833C6.1668 22.4167 4.73346 24.8333 4.73346 27.1333C4.73346 29.4333 6.1668 31.85 9.38346 32.0833C10.0668 32.1333 10.5835 32.7333 10.5501 33.4167C10.4835 34.0833 9.93346 34.5833 9.28346 34.5833Z" fill="white"/>
<path d="M26.367 17.7333C25.9003 17.7333 25.467 17.4833 25.2503 17.0333C24.9336 16.4167 25.1836 15.6667 25.817 15.35C26.8336 14.8333 27.9836 14.55 29.117 14.5333H29.1336C29.817 14.5333 30.367 15.0833 30.3836 15.7667C30.4003 16.45 29.8503 17.0333 29.1503 17.0333C28.3836 17.05 27.617 17.2333 26.917 17.5833C26.7336 17.7 26.5503 17.7333 26.367 17.7333Z" fill="white"/>
<path d="M17.6826 37.7C17.4659 37.7 17.2326 37.6667 17.0159 37.5833C16.2826 37.3 15.7993 36.6167 15.7993 35.8333V33.2H15.3826C14.1326 33.2 13.6826 32.4667 13.5326 32.1667C13.3993 31.8333 13.1659 31 13.9826 30.0833L18.0659 25.4333C18.5826 24.85 19.3993 24.6333 20.1326 24.9167C20.8659 25.2 21.3493 25.8833 21.3493 26.6667V29.3H21.7659C22.9993 29.3 23.4659 30.0333 23.6159 30.3333C23.7659 30.6333 23.9993 31.4667 23.1826 32.4L19.0993 37.05C18.7159 37.4667 18.1993 37.7 17.6826 37.7ZM16.7659 30.6833H17.0493C17.7326 30.6833 18.2993 31.25 18.2993 31.9333V34.15L20.3659 31.8H20.0826C19.3993 31.8 18.8326 31.2333 18.8326 30.55V28.3333L16.7659 30.6833Z" fill="white"/>
</svg>
