<svg width="40" height="40" viewBox="0 0 40 40" fill="none" xmlns="http://www.w3.org/2000/svg">
<path d="M11.4668 31.5C10.7835 31.5 10.2168 30.9333 10.2168 30.25V26.8C10.2168 26.1167 10.7835 25.55 11.4668 25.55C12.1501 25.55 12.7168 26.1167 12.7168 26.8V30.25C12.7168 30.95 12.1501 31.5 11.4668 31.5Z" fill="white"/>
<path d="M20 31.5C19.3167 31.5 18.75 30.9333 18.75 30.25V23.3333C18.75 22.65 19.3167 22.0833 20 22.0833C20.6833 22.0833 21.25 22.65 21.25 23.3333V30.25C21.25 30.95 20.6833 31.5 20 31.5Z" fill="white"/>
<path d="M28.5332 31.5C27.8499 31.5 27.2832 30.9333 27.2832 30.25V19.8833C27.2832 19.2 27.8499 18.6333 28.5332 18.6333C29.2165 18.6333 29.7832 19.2 29.7832 19.8833V30.25C29.7832 30.95 29.2332 31.5 28.5332 31.5Z" fill="white"/>
<path d="M11.4673 21.9667C10.9006 21.9667 10.4006 21.5833 10.2506 21.0167C10.0839 20.35 10.4839 19.6667 11.1673 19.5C17.3006 17.9667 22.7006 14.6167 26.8173 9.83333L27.5839 8.93333C28.0339 8.41667 28.8173 8.35 29.3506 8.8C29.8673 9.25 29.9339 10.0333 29.4839 10.5667L28.7173 11.4667C24.2673 16.6667 18.4006 20.2833 11.7673 21.9333C11.6673 21.9667 11.5673 21.9667 11.4673 21.9667Z" fill="white"/>
<path d="M28.5337 15.8667C27.8504 15.8667 27.2837 15.3 27.2837 14.6167V11H23.6504C22.9671 11 22.4004 10.4333 22.4004 9.75C22.4004 9.06667 22.9671 8.5 23.6504 8.5H28.5337C29.2171 8.5 29.7837 9.06667 29.7837 9.75V14.6333C29.7837 15.3167 29.2337 15.8667 28.5337 15.8667Z" fill="white"/>
<path d="M25.0007 37.9167H15.0007C5.95065 37.9167 2.08398 34.05 2.08398 25V15C2.08398 5.95 5.95065 2.08333 15.0007 2.08333H25.0007C34.0506 2.08333 37.9173 5.95 37.9173 15V25C37.9173 34.05 34.0506 37.9167 25.0007 37.9167ZM15.0007 4.58333C7.31732 4.58333 4.58398 7.31667 4.58398 15V25C4.58398 32.6833 7.31732 35.4167 15.0007 35.4167H25.0007C32.684 35.4167 35.4173 32.6833 35.4173 25V15C35.4173 7.31667 32.684 4.58333 25.0007 4.58333H15.0007Z" fill="white"/>
</svg>
