<svg width="40" height="40" viewBox="0 0 40 40" fill="none" xmlns="http://www.w3.org/2000/svg">
<path d="M19.9994 37.9333C18.1827 37.9333 16.3827 37.4 14.966 36.35L7.79935 31C5.89935 29.5833 4.41602 26.6333 4.41602 24.2667V11.8667C4.41602 9.3 6.29935 6.56667 8.71602 5.66667L17.0327 2.55C18.6827 1.93333 21.2827 1.93333 22.9327 2.55L31.266 5.66667C33.6827 6.56667 35.566 9.3 35.566 11.8667V24.25C35.566 26.6167 34.0827 29.5667 32.1827 30.9833L25.016 36.3333C23.616 37.4 21.816 37.9333 19.9994 37.9333ZM17.916 4.9L9.59935 8.01667C8.16602 8.55 6.91602 10.35 6.91602 11.8833V24.2667C6.91602 25.85 8.03268 28.0667 9.28268 29L16.4493 34.35C18.366 35.7833 21.616 35.7833 23.5327 34.35L30.6994 29C31.966 28.05 33.066 25.8333 33.066 24.2667V11.8667C33.066 10.35 31.816 8.55 30.3827 8L22.066 4.88333C20.966 4.48333 19.0327 4.48333 17.916 4.9Z" fill="white"/>
<path d="M19.9993 22.0833C17.466 22.0833 15.416 20.0333 15.416 17.5C15.416 14.9667 17.466 12.9167 19.9993 12.9167C22.5327 12.9167 24.5827 14.9667 24.5827 17.5C24.5827 20.0333 22.5327 22.0833 19.9993 22.0833ZM19.9993 15.4167C18.8493 15.4167 17.916 16.35 17.916 17.5C17.916 18.65 18.8493 19.5833 19.9993 19.5833C21.1493 19.5833 22.0827 18.65 22.0827 17.5C22.0827 16.35 21.1493 15.4167 19.9993 15.4167Z" fill="white"/>
<path d="M20 27.0833C19.3167 27.0833 18.75 26.5167 18.75 25.8333V20.8333C18.75 20.15 19.3167 19.5833 20 19.5833C20.6833 19.5833 21.25 20.15 21.25 20.8333V25.8333C21.25 26.5167 20.6833 27.0833 20 27.0833Z" fill="white"/>
</svg>
