<svg width="40" height="40" viewBox="0 0 40 40" fill="none" xmlns="http://www.w3.org/2000/svg">
<path d="M30.1667 29.5833H9.83332C5.96666 29.5833 3.75 27.3667 3.75 23.5V3.33333C3.75 2.65 4.31667 2.08333 5 2.08333H35C35.6833 2.08333 36.25 2.65 36.25 3.33333V23.5C36.25 27.3667 34.0333 29.5833 30.1667 29.5833ZM6.25 4.58333V23.5C6.25 25.9833 7.34999 27.0833 9.83332 27.0833H30.15C32.6333 27.0833 33.7333 25.9833 33.7333 23.5V4.58333H6.25Z" fill="white"/>
<path d="M36.6673 4.58333H3.33398C2.65065 4.58333 2.08398 4.01667 2.08398 3.33333C2.08398 2.65 2.65065 2.08333 3.33398 2.08333H36.6673C37.3507 2.08333 37.9173 2.65 37.9173 3.33333C37.9173 4.01667 37.3507 4.58333 36.6673 4.58333Z" fill="white"/>
<path d="M13.3338 37.9167C12.8671 37.9167 12.4338 37.6667 12.2171 37.2333C11.9004 36.6167 12.1505 35.8666 12.7838 35.55L18.7504 32.5667V28.3333C18.7504 27.65 19.3171 27.0833 20.0004 27.0833C20.6838 27.0833 21.2504 27.65 21.2504 28.3333V33.3333C21.2504 33.8 20.9838 34.2334 20.5504 34.45L13.8838 37.7834C13.7171 37.8667 13.5171 37.9167 13.3338 37.9167Z" fill="white"/>
<path d="M26.6659 37.9166C26.4826 37.9166 26.2826 37.8667 26.116 37.7833L19.4493 34.45C18.8326 34.1333 18.5826 33.3833 18.8826 32.7666C19.1992 32.15 19.9493 31.9 20.5659 32.2L27.2326 35.5333C27.8493 35.85 28.0993 36.6 27.7993 37.2166C27.5659 37.6666 27.1159 37.9166 26.6659 37.9166Z" fill="white"/>
<path d="M12.5002 19.5833C12.1502 19.5833 11.7836 19.4333 11.5336 19.1333C11.0836 18.6 11.1669 17.8167 11.7002 17.3667L16.9502 12.9833C17.4336 12.5833 18.0502 12.4167 18.6335 12.5167C19.2335 12.6167 19.7502 12.9833 20.0669 13.5166L21.8169 16.4333L26.7002 12.3667C27.2335 11.9333 28.0168 12 28.4668 12.5333C28.9168 13.0666 28.8336 13.85 28.3002 14.3L23.0502 18.6833C22.5668 19.0833 21.9502 19.25 21.3669 19.15C20.7669 19.05 20.2502 18.6833 19.9335 18.15L18.1835 15.2333L13.3002 19.3C13.0669 19.4833 12.7835 19.5833 12.5002 19.5833Z" fill="white"/>
</svg>
