<svg width="40" height="40" viewBox="0 0 40 40" fill="none" xmlns="http://www.w3.org/2000/svg">
<path d="M27.8004 34.7167C27.7837 34.7167 27.7504 34.7167 27.7337 34.7167H9.25039C4.35039 34.3667 2.15039 30.6 2.15039 27.2333C2.15039 24.2333 3.90039 20.9 7.71706 19.9833C6.65039 15.8167 7.55039 11.9 10.2671 9.06667C13.3504 5.83333 18.3004 4.55 22.5504 5.86667C26.4504 7.06667 29.2004 10.2833 30.2004 14.75C33.6171 15.5167 36.3337 18.1 37.4337 21.6667C38.6171 25.55 37.5504 29.5333 34.6337 32.0833C32.7671 33.7667 30.3337 34.7167 27.8004 34.7167ZM9.28372 22.25C9.26706 22.25 9.26706 22.25 9.25039 22.25C6.08372 22.4833 4.63372 24.9167 4.63372 27.2333C4.63372 29.55 6.08372 31.9833 9.31706 32.2167H27.7171C29.6504 32.1833 31.5004 31.5167 32.9337 30.2167C35.5337 27.9333 35.7171 24.6833 35.0171 22.4C34.3171 20.1 32.3671 17.5 28.9671 17.0667C28.4171 17 27.9837 16.5833 27.8837 16.0333C27.2171 12.0333 25.0504 9.26667 21.8004 8.26667C18.4171 7.23333 14.5171 8.25 12.0671 10.8C9.85039 13.1167 9.21706 16.3167 10.2504 19.8333C11.1004 19.95 11.9171 20.2 12.6671 20.5833C13.2837 20.9 13.5337 21.65 13.2171 22.2667C12.9004 22.8833 12.1504 23.1333 11.5337 22.8167C10.8504 22.4667 10.1004 22.2833 9.35039 22.2833C9.33372 22.25 9.31706 22.25 9.28372 22.25Z" fill="white"/>
<path d="M26.4167 17.7833C25.95 17.7833 25.5167 17.5333 25.3 17.0833C24.9834 16.4667 25.25 15.7167 25.8667 15.4C26.9 14.8833 28.05 14.6 29.1834 14.5833C29.85 14.5667 30.45 15.1167 30.45 15.8167C30.4667 16.5 29.9167 17.0833 29.2167 17.0833C28.45 17.1 27.6667 17.2833 26.9667 17.6333C26.7834 17.7333 26.6 17.7833 26.4167 17.7833Z" fill="white"/>
</svg>
