<svg width="40" height="40" viewBox="0 0 40 40" fill="none" xmlns="http://www.w3.org/2000/svg">
<path d="M8.33398 27.9167C7.65065 27.9167 7.08398 27.35 7.08398 26.6667V15C7.08398 14.3167 7.65065 13.75 8.33398 13.75C9.01732 13.75 9.58398 14.3167 9.58398 15V26.6667C9.58398 27.35 9.01732 27.9167 8.33398 27.9167Z" fill="white"/>
<path d="M8.75065 15.4167C5.06732 15.4167 2.08398 12.4333 2.08398 8.75C2.08398 5.06667 5.06732 2.08333 8.75065 2.08333C12.434 2.08333 15.4173 5.06667 15.4173 8.75C15.4173 12.4333 12.434 15.4167 8.75065 15.4167ZM8.75065 4.58333C6.45065 4.58333 4.58398 6.45 4.58398 8.75C4.58398 11.05 6.45065 12.9167 8.75065 12.9167C11.0507 12.9167 12.9173 11.05 12.9173 8.75C12.9173 6.45 11.0507 4.58333 8.75065 4.58333Z" fill="white"/>
<path d="M8.33398 37.9167C4.88398 37.9167 2.08398 35.1167 2.08398 31.6667C2.08398 28.2167 4.88398 25.4167 8.33398 25.4167C11.784 25.4167 14.584 28.2167 14.584 31.6667C14.584 35.1167 11.784 37.9167 8.33398 37.9167ZM8.33398 27.9167C6.26732 27.9167 4.58398 29.6 4.58398 31.6667C4.58398 33.7333 6.26732 35.4167 8.33398 35.4167C10.4007 35.4167 12.084 33.7333 12.084 31.6667C12.084 29.6 10.4007 27.9167 8.33398 27.9167Z" fill="white"/>
<path d="M31.666 37.9167C28.216 37.9167 25.416 35.1167 25.416 31.6667C25.416 28.2167 28.216 25.4167 31.666 25.4167C35.116 25.4167 37.916 28.2167 37.916 31.6667C37.916 35.1167 35.116 37.9167 31.666 37.9167ZM31.666 27.9167C29.5993 27.9167 27.916 29.6 27.916 31.6667C27.916 33.7333 29.5993 35.4167 31.666 35.4167C33.7327 35.4167 35.416 33.7333 35.416 31.6667C35.416 29.6 33.7327 27.9167 31.666 27.9167Z" fill="white"/>
<path d="M30.2827 27.9833C29.766 27.9833 29.2827 27.6667 29.0994 27.15C27.8827 23.65 24.5827 21.3 20.866 21.3C20.8494 21.3 20.8494 21.3 20.8327 21.3L15.116 21.3167C15.0994 21.3167 15.0994 21.3167 15.0827 21.3167C11.4327 21.3167 8.24937 18.85 7.3327 15.3167C7.16603 14.65 7.56603 13.9667 8.2327 13.8C8.89937 13.6333 9.5827 14.0333 9.74937 14.7C10.3827 17.1333 12.566 18.8333 15.0827 18.8333H15.0994L20.816 18.8167C20.8327 18.8167 20.8494 18.8167 20.866 18.8167C25.6327 18.8167 29.8827 21.8333 31.4494 26.35C31.6827 27 31.3327 27.7167 30.6827 27.9333C30.5494 27.95 30.416 27.9833 30.2827 27.9833Z" fill="white"/>
</svg>
