<svg width="40" height="40" viewBox="0 0 40 40" fill="none" xmlns="http://www.w3.org/2000/svg">
<path d="M26.6673 27.9167H13.334C12.6507 27.9167 12.084 27.35 12.084 26.6667V13.3333C12.084 12.65 12.6507 12.0833 13.334 12.0833H26.6673C27.3507 12.0833 27.9173 12.65 27.9173 13.3333V26.6667C27.9173 27.35 27.3507 27.9167 26.6673 27.9167ZM14.584 25.4167H25.4173V14.5833H14.584V25.4167Z" fill="white"/>
<path d="M8.33398 37.9167C4.88398 37.9167 2.08398 35.1167 2.08398 31.6667C2.08398 28.2167 4.88398 25.4167 8.33398 25.4167H13.334C14.0173 25.4167 14.584 25.9833 14.584 26.6667V31.6667C14.584 35.1167 11.784 37.9167 8.33398 37.9167ZM8.33398 27.9167C6.26732 27.9167 4.58398 29.6 4.58398 31.6667C4.58398 33.7333 6.26732 35.4167 8.33398 35.4167C10.4007 35.4167 12.084 33.7333 12.084 31.6667V27.9167H8.33398Z" fill="white"/>
<path d="M13.334 14.5833H8.33398C4.88398 14.5833 2.08398 11.7833 2.08398 8.33333C2.08398 4.88333 4.88398 2.08333 8.33398 2.08333C11.784 2.08333 14.584 4.88333 14.584 8.33333V13.3333C14.584 14.0167 14.0173 14.5833 13.334 14.5833ZM8.33398 4.58333C6.26732 4.58333 4.58398 6.26667 4.58398 8.33333C4.58398 10.4 6.26732 12.0833 8.33398 12.0833H12.084V8.33333C12.084 6.26667 10.4007 4.58333 8.33398 4.58333Z" fill="white"/>
<path d="M31.666 14.5833H26.666C25.9827 14.5833 25.416 14.0167 25.416 13.3333V8.33333C25.416 4.88333 28.216 2.08333 31.666 2.08333C35.116 2.08333 37.916 4.88333 37.916 8.33333C37.916 11.7833 35.116 14.5833 31.666 14.5833ZM27.916 12.0833H31.666C33.7327 12.0833 35.416 10.4 35.416 8.33333C35.416 6.26667 33.7327 4.58333 31.666 4.58333C29.5993 4.58333 27.916 6.26667 27.916 8.33333V12.0833Z" fill="white"/>
<path d="M31.666 37.9167C28.216 37.9167 25.416 35.1167 25.416 31.6667V26.6667C25.416 25.9833 25.9827 25.4167 26.666 25.4167H31.666C35.116 25.4167 37.916 28.2167 37.916 31.6667C37.916 35.1167 35.116 37.9167 31.666 37.9167ZM27.916 27.9167V31.6667C27.916 33.7333 29.5993 35.4167 31.666 35.4167C33.7327 35.4167 35.416 33.7333 35.416 31.6667C35.416 29.6 33.7327 27.9167 31.666 27.9167H27.916Z" fill="white"/>
</svg>
