<svg id="Layer_1" data-name="Layer 1" xmlns="http://www.w3.org/2000/svg" viewBox="0 0 562.75 360.93"><defs><style>.cls-1,.cls-4{fill:#ee3a24;}.cls-2{fill:none;stroke:#ee3a24;stroke-linecap:round;stroke-miterlimit:3.86;stroke-width:0.91px;}.cls-3,.cls-5{fill:#334c62;}.cls-3,.cls-4{fill-rule:evenodd;}</style></defs><title>IPeraLogo</title><rect class="cls-1" x="0.45" y="80.76" width="16.64" height="146.82"/><path class="cls-2" d="M182.19,197.85h74.35q18.94,0,27.27,10.8T292.23,243q0,23.61-9,34T255,287.31H198.83v57.36H182.19Zm16.64,14.68v60.1h44.7q20.47,0,26.22-5.46t5.83-23.64q0-19-4.69-25t-18.94-6Z" transform="translate(-139.54 -117.08)"/><path class="cls-3" d="M394.46,312.16l11.28,5.93a61.14,61.14,0,0,1-12.85,17.48,51,51,0,0,1-16.4,10.12,57.71,57.71,0,0,1-20.62,3.47q-25.51,0-39.9-16.63t-14.39-37.6a55.23,55.23,0,0,1,12.19-35.18q15.45-19.62,41.36-19.63,26.69,0,42.62,20.12,11.33,14.22,11.52,35.48h-94q.39,18,11.63,29.57a37.25,37.25,0,0,0,27.77,11.54,45.28,45.28,0,0,0,15.52-2.74A41.09,41.09,0,0,0,383,326.81Q388.32,322.28,394.46,312.16Zm.12-28q-2.7-10.69-7.84-17.1a37.17,37.17,0,0,0-13.62-10.31,42,42,0,0,0-17.8-3.92,38.49,38.49,0,0,0-26.47,9.84q-8.09,7.17-12.22,21.49Z" transform="translate(-139.54 -117.08)"/><path class="cls-3" d="M424.18,242.67h13.7v15.2q6.14-9,12.93-13.37A25.77,25.77,0,0,1,465,240.12a24.45,24.45,0,0,1,11.87,3.54l-7,11.2a18.7,18.7,0,0,0-7.09-1.82q-6.7,0-12.92,5.49t-9.48,17q-2.49,8.88-2.5,35.91v35.13h-13.7Z" transform="translate(-139.54 -117.08)"/><path class="cls-3" d="M587.14,242.67V346.61H573.83V328.74A56.38,56.38,0,0,1,555,344.06a51.44,51.44,0,0,1-22.86,5.1q-22.05,0-37.65-16t-15.6-38.84A52.51,52.51,0,0,1,494.62,256q15.75-15.92,37.88-15.92a49.43,49.43,0,0,1,23.15,5.38,52.15,52.15,0,0,1,18.18,16.28V242.67ZM533.55,253A40.3,40.3,0,0,0,498,273.87a41.91,41.91,0,0,0,.05,41.84,40.89,40.89,0,0,0,15.1,15.55,39.57,39.57,0,0,0,20.35,5.57,41.74,41.74,0,0,0,20.77-5.52,38.58,38.58,0,0,0,15.1-14.93,42.53,42.53,0,0,0,5.29-21.21q0-18-11.86-30.05A39.35,39.35,0,0,0,533.55,253Z" transform="translate(-139.54 -117.08)"/><rect class="cls-2" x="0.45" y="80.76" width="16.64" height="146.82"/><path class="cls-4" d="M182.19,197.85h74.35q18.94,0,27.27,10.8T292.23,243q0,23.61-9,34T255,287.31H198.83v57.36H182.19Zm16.64,14.68v60.1h44.7q20.47,0,26.22-5.46t5.83-23.64q0-19-4.69-25t-18.94-6Z" transform="translate(-139.54 -117.08)"/><polygon class="cls-1" points="468.47 217.06 468.47 143.87 519.09 180.46 468.47 217.06"/><path class="cls-5" d="M617.45,119.38,608,129.15l2.31,2.23c.74.73,74.48,73.48,75.19,170,.42,57.47-24.91,112.14-75.28,162.51l-2.27,2.27L619.8,478l2.27-2.27c53.71-53.7,80.69-112.45,80.21-174.63C701.47,197.5,625.22,122.45,622,119.31l-2.3-2.23Z" transform="translate(-139.54 -117.08)"/><path class="cls-5" d="M653.27,311.1l-10,7.25-.24,1.82c-4.74,35.34-23.14,69.25-54.67,100.79l-3,3,11.57,11.56,3-3c36.33-36.33,56.56-75.89,60.14-117.59l.8-9.29Z" transform="translate(-139.54 -117.08)"/><path class="cls-5" d="M593.76,162.62l-8.4,8.66,3,3c.42.41,42.32,41.94,53.24,99.89l.31,1.67,18.47,13.35-1.34-9.88c-9.18-67.6-57.25-114.79-59.29-116.77l-3.07-3Z" transform="translate(-139.54 -117.08)"/></svg>