<svg width="120" height="64" viewBox="0 0 120 64" fill="none" xmlns="http://www.w3.org/2000/svg">
<mask id="mask0_2351_560" style="mask-type:luminance" maskUnits="userSpaceOnUse" x="0" y="0" width="120" height="64">
<path d="M119.881 0H0V63.1597H119.881V0Z" fill="white"/>
</mask>
<g mask="url(#mask0_2351_560)">
<mask id="mask1_2351_560" style="mask-type:luminance" maskUnits="userSpaceOnUse" x="-136" y="-136" width="1647" height="9010">
<path d="M1510.98 -135.394H-135.04V8873.41H1510.98V-135.394Z" fill="white"/>
</mask>
<g mask="url(#mask1_2351_560)">
<path d="M54.4627 36.4949L47.2456 23.0837H52.4322L56.8002 31.7805L61.1998 23.0837H66.2604L59.0512 36.4319V45.2231H54.4627V36.4949Z" fill="white"/>
<path d="M68.7239 23.0837H82.9929V27.2314H73.2808V32.0009H81.8202V36.1486H73.2808V41.0833H83.1188V45.231H68.7239V23.0837Z" fill="white"/>
<path d="M85.1101 42.256L87.8333 38.8718C89.3208 40.1704 91.1231 41.3746 93.3425 41.3746C95.562 41.3746 96.1916 40.4852 96.1916 39.1945V39.163C96.1916 38.0533 95.562 37.3607 92.3981 36.1565C88.4786 34.6375 86.0388 33.15 86.0388 29.3565V29.2935C86.0388 25.4371 89.0138 22.8083 93.2795 22.8083C97.5453 22.8083 98.4032 23.6898 100.434 25.5315L97.868 29.0102C96.4749 27.869 94.8615 26.956 93.1536 26.956C91.4458 26.956 90.5958 27.7509 90.5958 28.8843V28.9158C90.5958 30.1829 91.3513 30.781 94.8064 32.2056C98.6629 33.7246 100.756 35.3695 100.756 38.8167V38.8796C100.756 42.9959 97.624 45.5222 93.3189 45.5222C89.0138 45.5222 87.5657 44.5384 85.1258 42.2639" fill="white"/>
<path d="M102.283 42.256L105.006 38.8718C106.494 40.1704 108.296 41.3746 110.516 41.3746C112.735 41.3746 113.365 40.4852 113.365 39.1945V39.163C113.365 38.0533 112.735 37.3607 109.571 36.1565C105.652 34.6375 103.212 33.15 103.212 29.3565V29.2935C103.212 25.4371 106.187 22.8083 110.453 22.8083C114.718 22.8083 115.576 23.6898 117.607 25.5315L115.041 29.0102C113.648 27.869 112.035 26.956 110.327 26.956C108.619 26.956 107.769 27.7509 107.769 28.8843V28.9158C107.769 30.1829 108.524 30.781 111.979 32.2056C115.836 33.7246 117.93 35.3695 117.93 38.8167V38.8796C117.93 42.9959 114.797 45.5222 110.492 45.5222C106.187 45.5222 104.739 44.5384 102.299 42.2639" fill="white"/>
<path d="M55.6434 54.3449H55.3207V51.8264H54.3762V51.5273H56.5878V51.8264H55.6434V54.3449Z" fill="white"/>
<path d="M59.6258 51.8185H57.9101V52.7787H59.4448V53.0699H57.9101V54.0537H59.6416V54.3449H57.5874V51.5273H59.6258V51.8185Z" fill="white"/>
<path d="M63.0966 53.8963C63.0257 53.975 62.947 54.038 62.8683 54.1009C62.7896 54.1639 62.7031 54.2111 62.6165 54.2583C62.5299 54.2977 62.4276 54.3371 62.3253 54.3607C62.223 54.3843 62.1049 54.4 61.9711 54.4C61.7665 54.4 61.5776 54.3607 61.4044 54.2898C61.2313 54.219 61.0896 54.1088 60.9558 53.9829C60.8299 53.8491 60.7355 53.6995 60.6646 53.5185C60.5938 53.3454 60.5544 53.1565 60.5544 52.9519C60.5544 52.7472 60.5859 52.5584 60.6646 52.3852C60.7355 52.2042 60.8299 52.0546 60.9558 51.9209C61.0818 51.7871 61.2313 51.6847 61.4044 51.606C61.5776 51.5273 61.7665 51.4958 61.9711 51.4958C62.1757 51.4958 62.2151 51.5037 62.3174 51.5273C62.4197 51.5509 62.5142 51.5824 62.6086 51.6139C62.6952 51.6533 62.7818 51.7005 62.8526 51.7556C62.9234 51.8107 63.0021 51.8736 63.0651 51.9366L62.8526 52.1648C62.7345 52.0546 62.6007 51.9602 62.4669 51.8894C62.3331 51.8185 62.16 51.7792 61.9711 51.7792C61.7822 51.7792 61.672 51.8028 61.5382 51.8658C61.4044 51.9287 61.2864 52.0074 61.1919 52.1097C61.0896 52.2121 61.0188 52.338 60.9637 52.4796C60.9086 52.6213 60.8771 52.7709 60.8771 52.9361C60.8771 53.1014 60.9086 53.2509 60.9637 53.3926C61.0188 53.5343 61.0896 53.6602 61.1919 53.7625C61.2864 53.8648 61.4044 53.9514 61.5382 54.0144C61.672 54.0773 61.8137 54.1009 61.9711 54.1009C62.1285 54.1009 62.3331 54.0695 62.4669 53.9986C62.6007 53.9278 62.7424 53.8255 62.8762 53.6996L63.0808 53.9042L63.0966 53.8963Z" fill="white"/>
<path d="M64.3717 53.0777V54.3449H64.0569V51.5352H64.3717V52.7787H66.0009V51.5352H66.3157V54.3449H66.0009V53.0777H64.3717Z" fill="white"/>
<path d="M69.5897 51.5273H69.8967V54.3449H69.6448L67.8268 52.0389V54.3449H67.512V51.5273H67.811L69.5897 53.7861V51.5273Z" fill="white"/>
<path d="M73.8396 52.9361C73.8396 53.1329 73.8081 53.3139 73.7373 53.4949C73.6665 53.6681 73.572 53.8255 73.4461 53.9593C73.3202 54.0931 73.1706 54.2032 72.9896 54.282C72.8165 54.3607 72.6197 54.4 72.4072 54.4C72.1947 54.4 71.9979 54.3607 71.8248 54.282C71.6516 54.2032 71.4942 54.1009 71.3762 53.9671C71.2503 53.8333 71.1558 53.6838 71.085 53.5028C71.0141 53.3296 70.9827 53.1407 70.9827 52.944C70.9827 52.7472 71.0141 52.5662 71.085 52.3852C71.1558 52.212 71.2503 52.0546 71.3762 51.9208C71.5021 51.787 71.6516 51.6769 71.8327 51.5982C72.0137 51.5195 72.2026 51.4801 72.4229 51.4801C72.6433 51.4801 72.8322 51.5195 73.0054 51.5982C73.1785 51.6769 73.328 51.7792 73.454 51.913C73.5799 52.0468 73.6743 52.2042 73.7452 52.3773C73.816 52.5505 73.8475 52.7394 73.8475 52.9361M73.5091 52.944C73.5091 52.7787 73.4854 52.6292 73.4304 52.4875C73.3753 52.3458 73.2966 52.2199 73.1942 52.1176C73.0919 52.0153 72.9817 51.9287 72.8401 51.8657C72.7063 51.8028 72.5567 51.7713 72.3915 51.7713C72.2262 51.7713 72.0845 51.8028 71.9429 51.8657C71.8091 51.9287 71.691 52.0074 71.5966 52.1097C71.5021 52.212 71.4234 52.338 71.3683 52.4796C71.3132 52.6213 71.2896 52.7708 71.2896 52.9361C71.2896 53.1014 71.3132 53.2509 71.3683 53.3926C71.4234 53.5343 71.5021 53.6602 71.6044 53.7625C71.7067 53.8648 71.8169 53.9514 71.9586 54.0144C72.0924 54.0773 72.2419 54.1088 72.4072 54.1088C72.5725 54.1088 72.7141 54.0773 72.8558 54.0144C72.9896 53.9514 73.1077 53.8727 73.2021 53.7704C73.2966 53.6681 73.3753 53.5421 73.4304 53.4005C73.4854 53.2588 73.5091 53.1093 73.5091 52.9519" fill="white"/>
<path d="M74.918 51.5273H75.2328V54.0537H76.8226V54.3449H74.918V51.5273Z" fill="white"/>
<path d="M80.3958 52.9361C80.3958 53.1329 80.3643 53.3139 80.2934 53.4949C80.2226 53.6681 80.1282 53.8255 80.0022 53.9593C79.8763 54.0931 79.7268 54.2032 79.5458 54.282C79.3726 54.3607 79.1759 54.4 78.9634 54.4C78.7509 54.4 78.5541 54.3607 78.381 54.282C78.2078 54.2032 78.0504 54.1009 77.9323 53.9671C77.8064 53.8333 77.712 53.6838 77.6411 53.5028C77.5703 53.3296 77.5388 53.1407 77.5388 52.944C77.5388 52.7472 77.5703 52.5662 77.6411 52.3852C77.712 52.212 77.8064 52.0546 77.9323 51.9208C78.0583 51.787 78.2078 51.6769 78.3888 51.5982C78.5698 51.5195 78.7587 51.4801 78.9791 51.4801C79.1995 51.4801 79.3884 51.5195 79.5615 51.5982C79.7347 51.6769 79.8842 51.7792 80.0101 51.913C80.136 52.0468 80.2305 52.2042 80.3013 52.3773C80.3721 52.5505 80.4036 52.7394 80.4036 52.9361M80.0652 52.944C80.0652 52.7787 80.0416 52.6292 79.9865 52.4875C79.9314 52.3458 79.8527 52.2199 79.7504 52.1176C79.6481 52.0153 79.5379 51.9287 79.3962 51.8657C79.2624 51.8028 79.1129 51.7713 78.9476 51.7713C78.7823 51.7713 78.6407 51.8028 78.499 51.8657C78.3652 51.9287 78.2472 52.0074 78.1527 52.1097C78.0583 52.212 77.9796 52.338 77.9245 52.4796C77.8694 52.6213 77.8458 52.7708 77.8458 52.9361C77.8458 53.1014 77.8694 53.2509 77.9245 53.3926C77.9796 53.5343 78.0583 53.6602 78.1606 53.7625C78.2629 53.8648 78.3731 53.9514 78.5147 54.0144C78.6485 54.0773 78.7981 54.1088 78.9634 54.1088C79.1286 54.1088 79.2703 54.0773 79.412 54.0144C79.5458 53.9514 79.6638 53.8727 79.7583 53.7704C79.8527 53.6681 79.9314 53.5421 79.9865 53.4005C80.0416 53.2588 80.0652 53.1093 80.0652 52.9519" fill="white"/>
<path d="M83.9058 53.9671C83.772 54.0852 83.6146 54.1875 83.4257 54.2662C83.2289 54.3528 83.0164 54.3921 82.7803 54.3921C82.5442 54.3921 82.3632 54.3528 82.19 54.282C82.009 54.2033 81.8595 54.1009 81.7336 53.975C81.6076 53.8412 81.5132 53.6917 81.4502 53.5107C81.3794 53.3375 81.3479 53.1486 81.3479 52.944C81.3479 52.7394 81.3794 52.5662 81.4502 52.3931C81.5211 52.2121 81.6155 52.0625 81.7414 51.9287C81.8595 51.7949 82.009 51.6926 82.1822 51.6139C82.3553 51.5352 82.5521 51.4958 82.7567 51.4958C82.9613 51.4958 83.1974 51.5273 83.3548 51.5903C83.5201 51.6533 83.6618 51.7477 83.8035 51.8658L83.5988 52.1097C83.4886 52.0153 83.3706 51.9366 83.2368 51.8815C83.103 51.8185 82.9377 51.787 82.741 51.787C82.5442 51.787 82.4419 51.8185 82.3081 51.8815C82.1822 51.9445 82.0641 52.0232 81.9697 52.1255C81.8752 52.2278 81.8044 52.3537 81.7493 52.4954C81.6942 52.637 81.6706 52.7866 81.6706 52.944C81.6706 53.1014 81.6942 53.2746 81.7493 53.4162C81.8044 53.5579 81.8752 53.6838 81.9697 53.7861C82.0641 53.8884 82.1822 53.975 82.3238 54.0301C82.4576 54.0931 82.615 54.1167 82.7882 54.1167C82.9613 54.1167 83.103 54.0931 83.2447 54.038C83.3863 53.9829 83.5044 53.9199 83.6067 53.8412V53.1408H82.7488V52.8574H83.9136V53.975L83.9058 53.9671Z" fill="white"/>
<path d="M86.1018 54.3449H85.7791V53.2273L84.6143 51.5273H84.9999L85.9444 52.9361L86.8967 51.5273H87.2666L86.1018 53.2273V54.3449Z" fill="white"/>
<path d="M90.0369 52.2277C90.0369 52.2986 90.0447 52.3537 90.0684 52.4087C90.092 52.4638 90.1313 52.5111 90.1864 52.5583C90.2415 52.5976 90.3202 52.6449 90.4225 52.6763C90.5248 52.7078 90.6508 52.7472 90.8003 52.7787C91.1151 52.8495 91.3512 52.9439 91.4929 53.0699C91.6424 53.1958 91.7133 53.3611 91.7133 53.5814C91.7133 53.8018 91.6897 53.8097 91.6424 53.912C91.5952 54.0064 91.5322 54.093 91.4457 54.1638C91.3591 54.2347 91.2568 54.2819 91.1466 54.3212C91.0285 54.3606 90.8947 54.3763 90.7609 54.3763C90.5327 54.3763 90.3281 54.337 90.1392 54.2661C89.9503 54.1953 89.7772 54.0773 89.604 53.9277L89.8008 53.6916C89.9503 53.8254 90.092 53.9277 90.2494 53.9907C90.3989 54.0615 90.5721 54.093 90.7688 54.093C90.9656 54.093 91.1151 54.0458 91.2253 53.9592C91.3355 53.8726 91.3984 53.7546 91.3984 53.605C91.3984 53.4555 91.3906 53.4791 91.367 53.424C91.3434 53.3689 91.304 53.3217 91.2568 53.2824C91.2017 53.2351 91.1309 53.1958 91.0364 53.1643C90.942 53.1328 90.8239 53.0935 90.6744 53.062C90.517 53.0305 90.3753 52.9833 90.2572 52.9439C90.1392 52.8967 90.0369 52.8416 89.9582 52.7787C89.8795 52.7157 89.8244 52.637 89.785 52.5504C89.7457 52.4638 89.7299 52.3615 89.7299 52.2435C89.7299 52.1254 89.7535 52.031 89.8008 51.9287C89.848 51.8342 89.911 51.7555 89.9897 51.6847C90.0762 51.6138 90.1707 51.5587 90.2809 51.5273C90.391 51.4879 90.517 51.4722 90.6508 51.4722C90.8554 51.4722 91.0364 51.4958 91.1938 51.5587C91.3512 51.6138 91.5008 51.7004 91.6424 51.8185L91.4614 52.0624C91.3276 51.9523 91.1938 51.8814 91.0679 51.8263C90.9341 51.7791 90.8003 51.7555 90.6508 51.7555C90.5012 51.7555 90.3202 51.7949 90.21 51.8893C90.0998 51.9759 90.0447 52.0861 90.0447 52.2199" fill="white"/>
<path d="M95.5147 52.9361C95.5147 53.1329 95.4832 53.3139 95.4123 53.4949C95.3415 53.6681 95.2471 53.8255 95.1211 53.9593C94.9952 54.0931 94.8457 54.2032 94.6647 54.282C94.4915 54.3607 94.2948 54.4 94.0823 54.4C93.8698 54.4 93.673 54.3607 93.4999 54.282C93.3267 54.2032 93.1693 54.1009 93.0512 53.9671C92.9253 53.8333 92.8309 53.6838 92.76 53.5028C92.6892 53.3296 92.6577 53.1407 92.6577 52.944C92.6577 52.7472 92.6892 52.5662 92.76 52.3852C92.8309 52.212 92.9253 52.0546 93.0512 51.9208C93.1772 51.787 93.3267 51.6769 93.5077 51.5982C93.6887 51.5195 93.8776 51.4801 94.098 51.4801C94.3184 51.4801 94.5073 51.5195 94.6804 51.5982C94.8536 51.6769 95.0031 51.7792 95.129 51.913C95.2549 52.0468 95.3494 52.2042 95.4202 52.3773C95.4911 52.5505 95.5225 52.7394 95.5225 52.9361M95.1841 52.944C95.1841 52.7787 95.1605 52.6292 95.1054 52.4875C95.0503 52.3458 94.9716 52.2199 94.8693 52.1176C94.767 52.0153 94.6568 51.9287 94.5151 51.8657C94.3813 51.8028 94.2318 51.7713 94.0665 51.7713C93.9012 51.7713 93.7596 51.8028 93.6179 51.8657C93.4841 51.9287 93.3661 52.0074 93.2716 52.1097C93.1772 52.212 93.0985 52.338 93.0434 52.4796C92.9883 52.6213 92.9647 52.7708 92.9647 52.9361C92.9647 53.1014 92.9883 53.2509 93.0434 53.3926C93.0985 53.5343 93.1772 53.6602 93.2795 53.7625C93.3818 53.8648 93.492 53.9514 93.6336 54.0144C93.7674 54.0773 93.917 54.1088 94.0823 54.1088C94.2475 54.1088 94.3892 54.0773 94.5309 54.0144C94.6647 53.9514 94.7827 53.8727 94.8772 53.7704C94.9716 53.6681 95.0503 53.5421 95.1054 53.4005C95.1605 53.2588 95.1841 53.1093 95.1841 52.9519" fill="white"/>
<path d="M96.593 51.5273H96.9078V54.0537H98.4977V54.3449H96.593V51.5273Z" fill="white"/>
<path d="M101.701 53.1407C101.701 53.3453 101.677 53.5263 101.614 53.6759C101.559 53.8333 101.48 53.9592 101.37 54.0694C101.268 54.1717 101.142 54.2504 101 54.3055C100.859 54.3606 100.701 54.3842 100.52 54.3842C100.339 54.3842 100.19 54.3606 100.048 54.3055C99.8985 54.2504 99.7805 54.1717 99.6782 54.0694C99.5758 53.9671 99.4971 53.8412 99.442 53.6838C99.3869 53.5264 99.3555 53.3532 99.3555 53.1564V51.5194H99.6703V53.1328C99.6703 53.4398 99.749 53.6759 99.8985 53.8412C100.056 54.0064 100.261 54.0851 100.536 54.0851C100.811 54.0851 101 54.0064 101.158 53.8569C101.315 53.6995 101.386 53.4713 101.386 53.1564V51.5194H101.701V53.1328V53.1407Z" fill="white"/>
<path d="M103.92 54.3449H103.598V51.8264H102.653V51.5273H104.865V51.8264H103.92V54.3449Z" fill="white"/>
<path d="M106.211 51.5273H105.896V54.3449H106.211V51.5273Z" fill="white"/>
<path d="M110.185 52.9361C110.185 53.1329 110.154 53.3139 110.083 53.4949C110.012 53.6681 109.917 53.8255 109.792 53.9593C109.666 54.0931 109.516 54.2032 109.335 54.282C109.162 54.3607 108.965 54.4 108.753 54.4C108.54 54.4 108.343 54.3607 108.17 54.282C107.997 54.2032 107.84 54.1009 107.722 53.9671C107.596 53.8333 107.501 53.6838 107.43 53.5028C107.36 53.3296 107.328 53.1407 107.328 52.944C107.328 52.7472 107.36 52.5662 107.43 52.3852C107.501 52.212 107.596 52.0546 107.722 51.9208C107.848 51.787 107.997 51.6769 108.178 51.5982C108.359 51.5195 108.548 51.4801 108.768 51.4801C108.989 51.4801 109.178 51.5195 109.351 51.5982C109.524 51.6769 109.673 51.7792 109.799 51.913C109.925 52.0468 110.02 52.2042 110.091 52.3773C110.161 52.5505 110.193 52.7394 110.193 52.9361M109.855 52.944C109.855 52.7787 109.831 52.6292 109.776 52.4875C109.721 52.3458 109.642 52.2199 109.54 52.1176C109.437 52.0153 109.327 51.9287 109.186 51.8657C109.052 51.8028 108.902 51.7713 108.737 51.7713C108.572 51.7713 108.43 51.8028 108.288 51.8657C108.155 51.9287 108.036 52.0074 107.942 52.1097C107.848 52.212 107.769 52.338 107.714 52.4796C107.659 52.6213 107.635 52.7708 107.635 52.9361C107.635 53.1014 107.659 53.2509 107.714 53.3926C107.769 53.5343 107.848 53.6602 107.95 53.7625C108.052 53.8648 108.162 53.9514 108.304 54.0144C108.438 54.0773 108.587 54.1088 108.753 54.1088C108.918 54.1088 109.06 54.0773 109.201 54.0144C109.335 53.9514 109.453 53.8727 109.548 53.7704C109.642 53.6681 109.721 53.5421 109.776 53.4005C109.831 53.2588 109.855 53.1093 109.855 52.9519" fill="white"/>
<path d="M113.333 51.5273H113.64V54.3449H113.388L111.57 52.0389V54.3449H111.255V51.5273H111.554L113.333 53.7861V51.5273Z" fill="white"/>
<path d="M115.08 52.2277C115.08 52.2986 115.088 52.3537 115.112 52.4087C115.135 52.4638 115.175 52.5111 115.23 52.5583C115.285 52.5976 115.364 52.6449 115.466 52.6763C115.568 52.7078 115.694 52.7472 115.844 52.7787C116.159 52.8495 116.395 52.9439 116.536 53.0699C116.686 53.1958 116.757 53.3611 116.757 53.5814C116.757 53.8018 116.733 53.8097 116.686 53.912C116.639 54.0064 116.576 54.093 116.489 54.1638C116.403 54.2347 116.3 54.2819 116.19 54.3212C116.072 54.3606 115.938 54.3763 115.804 54.3763C115.576 54.3763 115.372 54.337 115.183 54.2661C114.994 54.1953 114.821 54.0773 114.647 53.9277L114.844 53.6916C114.994 53.8254 115.135 53.9277 115.293 53.9907C115.442 54.0615 115.616 54.093 115.812 54.093C116.009 54.093 116.159 54.0458 116.269 53.9592C116.379 53.8726 116.442 53.7546 116.442 53.605C116.442 53.4555 116.434 53.4791 116.41 53.424C116.387 53.3689 116.347 53.3217 116.3 53.2824C116.245 53.2351 116.174 53.1958 116.08 53.1643C115.985 53.1328 115.867 53.0935 115.718 53.062C115.56 53.0305 115.419 52.9833 115.301 52.9439C115.183 52.8967 115.08 52.8416 115.002 52.7787C114.923 52.7157 114.868 52.637 114.828 52.5504C114.789 52.4638 114.773 52.3615 114.773 52.2435C114.773 52.1254 114.797 52.031 114.844 51.9287C114.891 51.8342 114.954 51.7555 115.033 51.6847C115.12 51.6138 115.214 51.5587 115.324 51.5273C115.434 51.4879 115.56 51.4722 115.694 51.4722C115.899 51.4722 116.08 51.4958 116.237 51.5587C116.395 51.6138 116.544 51.7004 116.686 51.8185L116.505 52.0624C116.371 51.9523 116.237 51.8814 116.111 51.8263C115.978 51.7791 115.844 51.7555 115.694 51.7555C115.545 51.7555 115.364 51.7949 115.253 51.8893C115.143 51.9759 115.088 52.0861 115.088 52.2199" fill="white"/>
<path d="M11.1443 51.7398C11.168 54.3921 11.1522 57.0366 11.1522 59.6889C11.1522 59.925 11.168 60.1611 11.1837 60.4759H11.1994V51.1653C11.1601 51.3463 11.1365 51.5352 11.1365 51.7398" fill="white"/>
<path d="M28.6715 13.9306C28.5141 14.0801 28.3882 14.2375 28.2859 14.3949V53.1329C28.8368 52.5899 29.3799 52.0389 29.9308 51.4959C30.1118 51.3149 30.2614 51.1338 30.3637 50.9371V12.2463C29.797 12.8051 29.2382 13.3718 28.6715 13.9306Z" fill="white"/>
<path d="M30.3716 12.2541V50.9449C30.3795 50.9291 30.3952 50.9055 30.4031 50.8819V12.2227C30.3952 12.2305 30.3873 12.2384 30.3716 12.2541Z" fill="white"/>
<path d="M24.886 37.1245V56.5407C25.5786 55.8481 26.2712 55.1555 26.9638 54.455V34.1573C26.4679 35.2277 25.7832 36.2194 24.886 37.1245Z" fill="white"/>
<path d="M28.2466 14.4736V53.1801C28.2623 53.1643 28.2781 53.1486 28.2938 53.1329V14.3949C28.2781 14.4185 28.2623 14.45 28.2466 14.4736Z" fill="white"/>
<path d="M26.9639 34.1653V54.463C26.9717 54.4551 26.9875 54.4473 26.9953 54.4315V34.0945C26.9875 34.1181 26.9796 34.1417 26.9639 34.1653Z" fill="white"/>
<path d="M21.478 40.5324V59.9644C21.541 59.9093 21.604 59.8542 21.6748 59.7834C22.3044 59.1459 22.934 58.5162 23.5558 57.8866V38.4625C22.8632 39.1551 22.1706 39.8477 21.478 40.5403" fill="white"/>
<path d="M24.8625 37.1482C24.8546 37.1561 24.8467 37.1639 24.8389 37.1718V56.5801C24.8546 56.5644 24.8703 56.5486 24.8861 56.5329V37.1167C24.8782 37.1246 24.8703 37.1324 24.8625 37.1403" fill="white"/>
<path d="M23.5559 38.4546V57.8786C23.5638 57.8708 23.5795 57.8629 23.5874 57.8472V38.4231C23.5795 38.431 23.5716 38.4388 23.5559 38.4546Z" fill="white"/>
<path d="M18.0703 43.9325V60.476C18.6999 60.476 19.3296 60.4839 19.9592 60.4917C20.03 60.4917 20.0851 60.4917 20.1481 60.4917V41.8625C19.4555 42.5551 18.7629 43.2477 18.0703 43.9403" fill="white"/>
<path d="M21.4309 40.5718V59.9958C21.4466 59.9801 21.4624 59.9722 21.4781 59.9565V40.5245C21.4624 40.5403 21.4466 40.556 21.4309 40.5718Z" fill="white"/>
<path d="M20.1479 41.8546V60.4838H20.1794V41.8231C20.1716 41.831 20.1637 41.8389 20.1479 41.8546Z" fill="white"/>
<path d="M14.6624 47.3088V60.4681C15.3628 60.4681 16.0554 60.4681 16.7401 60.4681V45.2389C16.0475 45.9236 15.3549 46.6162 14.6624 47.3009" fill="white"/>
<path d="M18.0229 43.9796V60.4759H18.0702V43.9324C18.0544 43.9481 18.0387 43.9639 18.0229 43.9796Z" fill="white"/>
<path d="M16.7402 45.2467V60.468H16.7717V45.2152C16.7638 45.2231 16.756 45.231 16.7402 45.2467Z" fill="white"/>
<path d="M13.3401 48.631C12.8286 49.1347 12.3249 49.6384 11.8133 50.1421C11.4985 50.4569 11.3017 50.7796 11.2073 51.1652V60.4759C11.9235 60.4759 12.6318 60.4759 13.3323 60.4759V48.631H13.3401Z" fill="white"/>
<path d="M14.6152 47.3561V60.4681H14.6625V47.3088C14.6467 47.3246 14.631 47.3403 14.6152 47.3561Z" fill="white"/>
<path d="M13.3401 48.631V60.4759H13.3716V48.5995C13.3637 48.6074 13.3558 48.6152 13.3401 48.631Z" fill="white"/>
<path d="M31.6938 10.9398V31.206C32.1976 30.1514 32.8823 29.1676 33.7716 28.2704V8.87781C33.079 9.5704 32.3864 10.2551 31.6938 10.9398Z" fill="white"/>
<path d="M31.6467 10.987V31.3083C31.6625 31.2769 31.6782 31.2375 31.7018 31.206V10.9398C31.6861 10.9556 31.6703 10.9713 31.6467 10.9949" fill="white"/>
<path d="M33.7717 8.86993V28.2704C33.7796 28.2625 33.7953 28.2468 33.8032 28.2389V8.84631C33.7953 8.85418 33.7875 8.86206 33.7717 8.8778" fill="white"/>
<path d="M37.1245 5.52494C36.4555 6.20179 35.7787 6.87077 35.1018 7.54762V26.9481C35.7944 26.2555 36.487 25.5708 37.1796 24.8782V5.46985C37.1638 5.48559 37.1402 5.50133 37.1245 5.51707" fill="white"/>
<path d="M35.0466 7.59489V26.9954C35.0624 26.9796 35.0781 26.956 35.1017 26.9403V7.53979C35.086 7.55554 35.0702 7.57128 35.0466 7.59489Z" fill="white"/>
<path d="M37.1716 5.47777V24.8861C37.1795 24.8782 37.1952 24.8625 37.2031 24.8546V5.44629C37.1952 5.45416 37.1874 5.46203 37.1716 5.47777Z" fill="white"/>
<path d="M38.5017 4.95837V23.5561C39.1943 22.8713 39.8869 22.1787 40.5795 21.494V4.96624C39.8869 4.96624 39.1943 4.96624 38.5017 4.95837Z" fill="white"/>
<path d="M38.4544 4.95831H38.4465V23.6032C38.4623 23.5875 38.478 23.5717 38.5016 23.5481V4.95044H38.4623L38.4544 4.95831Z" fill="white"/>
<path d="M40.5796 4.96619V21.494C40.5875 21.4861 40.6032 21.4704 40.6111 21.4625V4.96619H40.5796Z" fill="white"/>
<path d="M41.9016 4.97412V20.1797C42.5942 19.495 43.2868 18.8024 43.9794 18.1176V4.97412H41.9016Z" fill="white"/>
<path d="M41.8545 4.97406V20.2268C41.8702 20.2111 41.886 20.1954 41.9096 20.1717V4.96619H41.8545" fill="white"/>
<path d="M46.7656 15.3472C47.1906 14.9301 47.4031 14.4972 47.3952 13.8912C47.3716 11.168 47.3873 8.44489 47.3873 5.72175C47.3873 5.4935 47.3559 5.25739 47.3323 4.96619H45.3096V16.7875C45.7975 16.3074 46.2776 15.8194 46.7656 15.3393" fill="white"/>
<path d="M43.9795 4.97412V18.1176C43.9874 18.1098 44.0031 18.094 44.011 18.0862V4.98199H43.9795V4.97412Z" fill="white"/>
<path d="M45.2544 16.8505C45.2701 16.8348 45.2859 16.819 45.3095 16.7954V4.97412H45.2544V16.8505Z" fill="white"/>
<path d="M3.76978 13.844C3.76978 13.9463 3.76978 14.0486 3.78552 14.1431V11.9C3.78552 12.5454 3.77765 13.1986 3.76978 13.844Z" fill="#397EF5"/>
<path d="M23.3277 32.1819C23.3041 28.3333 23.2883 24.4768 23.2568 20.6361V32.6699C23.2647 32.6699 23.2647 32.6778 23.2726 32.6856C23.3041 32.3708 23.3277 32.2764 23.3277 32.1819Z" fill="#397EF5"/>
<path d="M3.7854 7.39026V11.9C3.79327 10.3967 3.7854 8.8935 3.7854 7.39026Z" fill="#397EF5"/>
<path d="M4.47824 15.4025C4.9662 15.8512 5.46203 16.3076 5.95 16.7562V4.96643C5.58796 4.96643 5.21805 4.96643 4.85602 4.96643H3.78564V7.38264C3.78564 8.88588 3.78564 10.3891 3.78564 11.8924V14.1354C3.84074 14.647 4.06898 15.0326 4.47037 15.4025" fill="#397EF5"/>
<path d="M5.94995 4.97412V16.7639C5.95782 16.7718 5.97356 16.7797 5.98143 16.7875V4.97412H5.94995Z" fill="#397EF5"/>
<path d="M7.29565 4.96619V17.9916C7.99612 18.637 8.70445 19.2824 9.40491 19.9356V4.96619H7.29565Z" fill="#397EF5"/>
<path d="M7.24072 4.96619V17.9444C7.25646 17.9602 7.27221 17.9759 7.29582 17.9916V4.96619H7.24072Z" fill="#397EF5"/>
<path d="M9.40503 4.96619V19.9356C9.4129 19.9435 9.42864 19.9514 9.43651 19.9592V4.96619H9.40503Z" fill="#397EF5"/>
<path d="M10.7507 4.97412C11.4118 4.97412 12.0651 4.98199 12.7262 4.99773C12.7655 4.99773 12.8128 4.99773 12.86 5.0056" fill="#397EF5"/>
<path d="M12.7262 4.99773C12.0651 4.98986 11.4118 4.98199 10.7507 4.97412V21.1792C11.4512 21.8246 12.1517 22.47 12.86 23.1153V5.0056C12.8206 5.0056 12.7734 4.99773 12.7262 4.99773Z" fill="#397EF5"/>
<path d="M10.6958 4.97412V21.132C10.7115 21.1477 10.7273 21.1635 10.7509 21.1792V4.97412H10.6958Z" fill="#397EF5"/>
<path d="M12.8924 23.1476C12.8843 23.1395 12.8682 23.1314 12.8601 23.1152L12.8924 23.1476Z" fill="#397EF5"/>
<path d="M12.8601 5.00549V23.1152C12.868 23.1231 12.8837 23.131 12.8916 23.1467V5.01337C12.8837 5.01337 12.868 5.01337 12.8601 5.01337" fill="#397EF5"/>
<path d="M14.2058 5.72961C14.9141 6.42221 15.6146 7.1148 16.3151 7.81526L14.2058 5.72961Z" fill="#397EF5"/>
<path d="M14.2058 5.72961V24.3588C14.9063 25.0042 15.6067 25.6574 16.3151 26.3028V7.81526C15.6146 7.12267 14.9141 6.42221 14.2058 5.72961Z" fill="#397EF5"/>
<path d="M14.1509 5.67456C14.1669 5.69053 14.1828 5.70651 14.2068 5.73046L14.1509 5.67456Z" fill="#397EF5"/>
<path d="M14.2068 24.3594C14.1908 24.3435 14.1748 24.3275 14.1509 24.3115L14.2068 24.3594Z" fill="#397EF5"/>
<path d="M14.1509 5.67449V24.3037C14.1666 24.3194 14.1824 24.3351 14.206 24.3509V5.72172C14.1902 5.70598 14.1745 5.69024 14.1509 5.66663" fill="#397EF5"/>
<path d="M16.3152 7.81531C16.3233 7.82339 16.3394 7.83955 16.3475 7.84763L16.3152 7.81531Z" fill="#397EF5"/>
<path d="M16.3475 26.3272C16.3394 26.3192 16.3233 26.3111 16.3152 26.2949L16.3475 26.3272Z" fill="#397EF5"/>
<path d="M16.3152 7.81531V26.3028C16.3231 26.3107 16.3388 26.3185 16.3467 26.3343V7.84679C16.3388 7.83892 16.3231 7.83105 16.3152 7.81531Z" fill="#397EF5"/>
<path d="M17.6609 9.14539C18.3692 9.84585 19.0697 10.5463 19.7701 11.2546L17.6609 9.14539Z" fill="#397EF5"/>
<path d="M17.6609 9.14539V27.5463C18.3614 28.1917 19.0618 28.8371 19.7701 29.4903V11.2625C19.0697 10.5542 18.3692 9.85372 17.6609 9.15325" fill="#397EF5"/>
<path d="M17.606 9.09033C17.6219 9.1063 17.6379 9.12228 17.6619 9.14624L17.606 9.09033Z" fill="#397EF5"/>
<path d="M17.6619 27.5391C17.6459 27.5232 17.6299 27.5072 17.606 27.4912L17.6619 27.5391Z" fill="#397EF5"/>
<path d="M17.606 9.09027V27.4912C17.6217 27.5069 17.6374 27.5227 17.661 27.5384V9.13749C17.6453 9.12175 17.6296 9.10601 17.606 9.0824" fill="#397EF5"/>
<path d="M21.116 12.6083C21.6354 13.1277 22.1549 13.6472 22.6743 14.1745C22.9655 14.4657 23.2016 14.9615 23.2095 15.3708C23.2252 17.1259 23.241 18.881 23.2567 20.6361" fill="#397EF5"/>
<path d="M23.2017 15.363C23.2017 14.9616 22.9577 14.4657 22.6665 14.1667C22.147 13.6472 21.6276 13.1278 21.1082 12.6005V30.7181L23.2489 33.6065V20.6282C23.2332 18.8731 23.2174 17.1181 23.1938 15.363" fill="#397EF5"/>
<path d="M19.7703 11.2546C19.7783 11.2627 19.7945 11.2789 19.8026 11.287L19.7703 11.2546Z" fill="#397EF5"/>
<path d="M19.8026 29.5147C19.7945 29.5067 19.7783 29.4986 19.7703 29.4824L19.8026 29.5147Z" fill="#050953"/>
<path d="M19.7703 11.2546V29.4824C19.7781 29.4903 19.7939 29.506 19.8017 29.5139V11.2861C19.7939 11.2782 19.7781 11.2625 19.7703 11.2546Z" fill="#397EF5"/>
<path d="M21.1169 30.7266C21.101 30.7107 21.085 30.6947 21.061 30.6787L21.1169 30.7266Z" fill="#050953"/>
<path d="M21.061 12.5532C21.077 12.5692 21.093 12.5852 21.1169 12.6091L21.061 12.5532Z" fill="#397EF5"/>
<path d="M21.061 30.6787C21.0768 30.6944 21.0925 30.7102 21.1161 30.7259V12.6083C21.1004 12.5926 21.0846 12.569 21.061 12.5532V30.6787Z" fill="#397EF5"/>
<path d="M118.637 45.3333C118.416 45.3333 118.212 45.2782 118.039 45.1759C117.858 45.0736 117.716 44.924 117.606 44.743C117.496 44.562 117.44 44.3652 117.44 44.1527C117.44 43.9402 117.496 43.7277 117.606 43.5546C117.716 43.3736 117.858 43.2319 118.039 43.1296C118.22 43.0273 118.416 42.9722 118.637 42.9722C118.857 42.9722 119.046 43.0273 119.227 43.1296C119.408 43.2319 119.542 43.3814 119.652 43.5546C119.754 43.7356 119.809 43.9324 119.809 44.1527C119.809 44.3731 119.754 44.5698 119.652 44.743C119.542 44.924 119.4 45.0657 119.227 45.1759C119.054 45.2782 118.857 45.3333 118.637 45.3333ZM118.637 45.1129C118.826 45.1129 118.991 45.0736 119.133 44.9791C119.274 44.8925 119.384 44.7745 119.471 44.6328C119.55 44.4912 119.589 44.3259 119.589 44.1527C119.589 43.9796 119.55 43.8064 119.471 43.6648C119.392 43.5231 119.282 43.405 119.133 43.3185C118.991 43.2319 118.826 43.1925 118.637 43.1925C118.448 43.1925 118.283 43.2319 118.133 43.3185C117.983 43.405 117.873 43.5231 117.795 43.6648C117.716 43.8143 117.677 43.9717 117.677 44.1527C117.677 44.3337 117.716 44.4912 117.795 44.6328C117.873 44.7824 117.991 44.8925 118.133 44.9791C118.283 45.0657 118.448 45.1129 118.637 45.1129ZM118.188 44.7273V43.5231H118.621C118.778 43.5231 118.904 43.5467 118.991 43.6018C119.077 43.6569 119.117 43.7513 119.117 43.8773C119.117 44.0032 119.093 44.0583 119.038 44.1212C118.983 44.1842 118.904 44.2157 118.794 44.2157C118.881 44.2157 118.944 44.2393 118.967 44.2787C118.999 44.3259 119.015 44.3731 119.022 44.4282C119.022 44.4833 119.038 44.5226 119.054 44.5541C119.07 44.5856 119.117 44.5935 119.172 44.562V44.6879C119.133 44.7194 119.085 44.7351 119.038 44.7351C118.983 44.7351 118.936 44.7273 118.896 44.6879C118.857 44.6564 118.833 44.5856 118.833 44.4911C118.833 44.3967 118.826 44.3495 118.81 44.3101C118.794 44.2708 118.755 44.2393 118.692 44.2314C118.629 44.2157 118.534 44.2078 118.393 44.2078V44.7194H118.18L118.188 44.7273ZM118.401 44.074H118.621C118.723 44.074 118.794 44.0662 118.849 44.0504C118.904 44.0347 118.928 43.9796 118.928 43.9009C118.928 43.8222 118.896 43.7513 118.833 43.7356C118.771 43.712 118.684 43.7041 118.574 43.7041H118.401V44.074Z" fill="white"/>
</g>
</g>
</svg>
