<svg width="47" height="48" viewBox="0 0 47 48" fill="none" xmlns="http://www.w3.org/2000/svg">
<path d="M20.1651 41.5974C19.036 41.379 18.0832 40.6006 17.5234 39.4569L15.7017 35.7096C15.6653 35.6346 15.4847 35.5148 15.4061 35.4826L14.5879 35.3244C7.76431 34.0049 3.90005 31.3395 5.67828 22.1432L7.26034 13.9614C8.65888 6.72873 13.2088 3.65325 20.4415 5.05179L33.5324 7.58308C40.7651 8.98162 43.8405 13.5316 42.442 20.7643L40.8599 28.946C39.4614 36.1787 34.9115 39.2542 27.6788 37.8557L26.8606 37.6975C26.7297 37.6722 26.6024 37.7155 26.5016 37.7979L23.4143 40.596C22.4685 41.4486 21.2942 41.8157 20.1651 41.5974ZM19.9669 7.50633C14.1088 6.37357 10.8476 8.57788 9.71488 14.436L8.13282 22.6178C6.70264 30.0141 9.00801 31.6991 15.0625 32.8698L15.8807 33.0281C16.7152 33.1894 17.5726 33.8475 17.9501 34.6165L19.7718 38.3638C20.199 39.2273 21.0172 39.3855 21.7355 38.7435L24.8228 35.9454C25.502 35.3298 26.4352 35.0689 27.3352 35.2429L28.1534 35.4011C34.0115 36.5339 37.2727 34.3296 38.4054 28.4714L39.9875 20.2896C41.1202 14.4315 38.9159 11.1704 33.0578 10.0376L19.9669 7.50633Z" fill="white"/>
<path d="M16.5717 25.0642C16.2608 25.0041 15.9721 24.8294 15.7741 24.5365L13.1342 20.6309C12.7514 20.0646 12.9033 19.2792 13.4696 18.8964L17.3751 16.2565C17.9414 15.8737 18.7269 16.0256 19.1096 16.5919C19.4924 17.1582 19.3405 17.9437 18.7742 18.3265L15.9037 20.2668L17.844 23.1373C18.2268 23.7036 18.0749 24.4891 17.5086 24.8719C17.2157 25.0699 16.8826 25.1243 16.5717 25.0642Z" fill="white"/>
<path d="M29.6626 27.5957C29.3517 27.5356 29.063 27.3609 28.865 27.068C28.4822 26.5017 28.6341 25.7162 29.2004 25.3334L32.071 23.3932L30.1306 20.5225C29.7479 19.9562 29.8997 19.1708 30.466 18.788C31.0323 18.4052 31.8178 18.5571 32.2006 19.1234L34.8405 23.0289C35.2233 23.5952 35.0714 24.3807 34.5051 24.7635L30.5995 27.4034C30.3066 27.6014 29.9736 27.6558 29.6626 27.5957Z" fill="white"/>
<path d="M21.3762 26.5537C21.2126 26.5221 21.0553 26.4576 20.9043 26.3605C20.3331 25.9784 20.1778 25.2015 20.5794 24.6171L25.3297 17.6082C25.7118 17.037 26.4887 16.8816 27.0731 17.2832C27.6443 17.6653 27.7996 18.4422 27.3981 19.0266L22.6477 26.0356C22.3627 26.4559 21.8507 26.6455 21.3762 26.5537Z" fill="white"/>
</svg>
