<svg width="30" height="30" viewBox="0 0 30 30" fill="none" xmlns="http://www.w3.org/2000/svg">
<path d="M21.25 27.1875H20C19.4875 27.1875 19.0625 26.7625 19.0625 26.25C19.0625 25.7375 19.4875 25.3125 20 25.3125H21.25C24.475 25.3125 26.5625 23.225 26.5625 20V10C26.5625 6.775 24.475 4.6875 21.25 4.6875H8.75C5.525 4.6875 3.4375 6.775 3.4375 10V11.25C3.4375 11.7625 3.0125 12.1875 2.5 12.1875C1.9875 12.1875 1.5625 11.7625 1.5625 11.25V10C1.5625 5.7 4.45 2.8125 8.75 2.8125H21.25C25.55 2.8125 28.4375 5.7 28.4375 10V20C28.4375 24.3 25.55 27.1875 21.25 27.1875Z" fill="white"/>
<path d="M15.3625 26.3249C14.9 26.3249 14.5 25.975 14.4375 25.5125C13.75 20.1625 9.84997 16.25 4.48747 15.5625C3.97497 15.5 3.61248 15.0249 3.67498 14.5124C3.73748 13.9999 4.21247 13.6374 4.72497 13.6999C10.95 14.4999 15.5 19.0374 16.2875 25.2624C16.35 25.7749 15.9875 26.2499 15.475 26.3124C15.45 26.3249 15.4 26.3249 15.3625 26.3249Z" fill="white"/>
<path d="M11.1621 27.6624C10.6996 27.6624 10.2996 27.3125 10.2371 26.85C9.74959 23.0375 6.9621 20.2499 3.1496 19.7624C2.6371 19.6999 2.27458 19.2249 2.33708 18.7124C2.39958 18.1999 2.8746 17.8375 3.3871 17.9C8.0746 18.5 11.4871 21.9249 12.0871 26.5999C12.1496 27.1124 11.7871 27.5874 11.2746 27.6499C11.2371 27.6624 11.1996 27.6624 11.1621 27.6624Z" fill="white"/>
<path d="M6.41327 28.4624C5.95077 28.4624 5.55076 28.1125 5.48826 27.65C5.27576 25.9625 4.03827 24.7249 2.35077 24.5124C1.83827 24.4499 1.47576 23.9749 1.53826 23.4624C1.60076 22.9499 2.07577 22.5875 2.58827 22.65C5.11327 22.975 7.02577 24.8874 7.35077 27.4124C7.41327 27.9249 7.05076 28.3999 6.53826 28.4624C6.50076 28.4624 6.46327 28.4624 6.41327 28.4624Z" fill="white"/>
</svg>
