<svg width="30" height="30" viewBox="0 0 30 30" fill="none" xmlns="http://www.w3.org/2000/svg">
<path d="M18.75 28.4375H11.25C5.7375 28.4375 4.0625 26.7625 4.0625 21.25V8.75C4.0625 3.2375 5.7375 1.5625 11.25 1.5625H18.75C24.2625 1.5625 25.9375 3.2375 25.9375 8.75V21.25C25.9375 26.7625 24.2625 28.4375 18.75 28.4375ZM11.25 3.4375C6.775 3.4375 5.9375 4.2875 5.9375 8.75V21.25C5.9375 25.7125 6.775 26.5625 11.25 26.5625H18.75C23.225 26.5625 24.0625 25.7125 24.0625 21.25V8.75C24.0625 4.2875 23.225 3.4375 18.75 3.4375H11.25Z" fill="white"/>
<path d="M17.5 7.8125H12.5C11.9875 7.8125 11.5625 7.3875 11.5625 6.875C11.5625 6.3625 11.9875 5.9375 12.5 5.9375H17.5C18.0125 5.9375 18.4375 6.3625 18.4375 6.875C18.4375 7.3875 18.0125 7.8125 17.5 7.8125Z" fill="white"/>
<path d="M15 24.825C13.4125 24.825 12.125 23.5375 12.125 21.95C12.125 20.3625 13.4125 19.075 15 19.075C16.5875 19.075 17.875 20.3625 17.875 21.95C17.875 23.5375 16.5875 24.825 15 24.825ZM15 20.9375C14.45 20.9375 14 21.3875 14 21.9375C14 22.4875 14.45 22.9375 15 22.9375C15.55 22.9375 16 22.4875 16 21.9375C16 21.3875 15.55 20.9375 15 20.9375Z" fill="white"/>
</svg>
