<svg width="30" height="30" viewBox="0 0 30 30" fill="none" xmlns="http://www.w3.org/2000/svg">
<path d="M21.95 22.4625H8.05C3.075 22.4625 1.5625 20.95 1.5625 15.975V8.05C1.5625 3.075 3.075 1.5625 8.05 1.5625H21.9375C26.9125 1.5625 28.425 3.075 28.425 8.05V15.9625C28.4375 20.95 26.925 22.4625 21.95 22.4625ZM8.05 3.4375C4.125 3.4375 3.4375 4.125 3.4375 8.05V15.9625C3.4375 19.8875 4.125 20.575 8.05 20.575H21.9375C25.8625 20.575 26.55 19.8875 26.55 15.9625V8.05C26.55 4.125 25.8625 3.4375 21.9375 3.4375H8.05Z" fill="white"/>
<path d="M15 28.4375C14.4875 28.4375 14.0625 28.0125 14.0625 27.5V21.525C14.0625 21.0125 14.4875 20.5875 15 20.5875C15.5125 20.5875 15.9375 21.0125 15.9375 21.525V27.5C15.9375 28.0125 15.5125 28.4375 15 28.4375Z" fill="white"/>
<path d="M27.5 17.1875H2.5C1.9875 17.1875 1.5625 16.7625 1.5625 16.25C1.5625 15.7375 1.9875 15.3125 2.5 15.3125H27.5C28.0125 15.3125 28.4375 15.7375 28.4375 16.25C28.4375 16.7625 28.0125 17.1875 27.5 17.1875Z" fill="white"/>
<path d="M20.625 28.4375H9.375C8.8625 28.4375 8.4375 28.0125 8.4375 27.5C8.4375 26.9875 8.8625 26.5625 9.375 26.5625H20.625C21.1375 26.5625 21.5625 26.9875 21.5625 27.5C21.5625 28.0125 21.1375 28.4375 20.625 28.4375Z" fill="white"/>
</svg>
