<svg width="161" height="51" viewBox="0 0 161 51" fill="none" xmlns="http://www.w3.org/2000/svg">
<g clip-path="url(#clip0_2710_2533)">
<mask id="mask0_2710_2533" style="mask-type:luminance" maskUnits="userSpaceOnUse" x="0" y="0" width="161" height="51">
<path d="M160.65 0H0V51H160.65V0Z" fill="white"/>
</mask>
<g mask="url(#mask0_2710_2533)">
<path d="M106.294 42.5337H105.989V42.3555L106.294 42.5337Z" fill="#B3B3B3"/>
<path d="M106.294 42.5337H105.989V42.3555L106.294 42.5337Z" fill="#B3B3B3"/>
<path d="M8.69984 24.3079V44.1108L0 50.9999V19.0542L8.69984 24.3079Z" fill="#B3B3B3"/>
<path d="M48.9623 0.240723V32.5474L40.2625 27.2937V7.12985L48.6571 0.481352L48.9623 0.240723Z" fill="#B3B3B3"/>
<path d="M48.9623 35.3681V51.0001H35.6074L14.9539 38.5275L11.051 36.1658V25.7296L14.1329 27.5922L22.433 32.6009L37.9114 41.9542L40.2625 43.3713V40.5551L37.9114 39.1335L24.449 31.0057L16.1531 25.9925L11.051 22.9088L8.69984 21.4918L0 16.2336V0.240723H12.7575L33.1273 12.544L37.9114 15.436V25.8722L25.6482 18.4661L11.051 9.64753L8.69984 8.2305V11.0512L11.051 12.4727L23.628 20.0703L37.9114 28.6973L40.2625 30.1144L48.9623 35.3681Z" fill="#B3B3B3"/>
<path d="M71.3913 21.7326L63.7661 11.8179H62.1155V25.7565H64.2862V15.9219L71.9114 25.7565H73.5448V11.8179H71.3913V21.7326Z" fill="#B3B3B3"/>
<path d="M79.7473 15.6812C76.79 15.6812 74.7742 17.8112 74.7742 20.7968C74.7742 23.9428 76.7728 25.9926 79.8848 25.9926C81.3463 25.9926 82.9753 25.4356 83.9554 24.3216L82.6702 23.0248C82.0942 23.7022 80.8821 24.0809 79.9235 24.0809C78.1956 24.0809 77.0049 23.105 76.8331 21.6122H84.5141C84.8795 17.6107 82.8034 15.6768 79.7516 15.6768L79.7473 15.6812ZM76.8674 19.8833C77.1726 18.3281 78.3675 17.5126 79.8074 17.5126C81.4021 17.5126 82.4983 18.3281 82.61 19.8833H76.8674Z" fill="#B3B3B3"/>
<path d="M94.9805 15.9974V15.9395H92.5777L90.4845 19.442L88.374 15.9395H85.9927V15.9974L89.1777 20.7565L85.7778 25.6983V25.7563H88.1633L90.4845 22.1914L92.8098 25.7563H95.1912V25.6983L91.7912 20.7565L94.9805 15.9974Z" fill="#B3B3B3"/>
<path d="M101.587 24.0228C100.667 24.0228 100.225 23.4435 100.225 22.4097V17.7308H103.01V15.9573H100.246V13.1099L98.2474 13.3281V15.9573H96.4207V17.7308H98.2474V22.4097C98.2474 24.7179 99.4208 25.9345 101.475 25.8766C102.146 25.8766 102.726 25.7384 103.375 25.4398L102.799 23.6885C102.417 23.8891 101.974 24.0272 101.592 24.0272L101.587 24.0228Z" fill="#B3B3B3"/>
<path d="M111.491 17.4544C109.724 17.196 108.224 16.8173 108.224 15.4625C108.224 14.1079 109.53 13.3504 111.336 13.3504C112.737 13.3727 114.026 13.9475 114.659 14.9056L116.291 13.7692C115.156 11.8978 113.219 11.4209 111.28 11.4209C108.86 11.4209 106.075 12.5349 106.092 15.4224C106.092 18.408 108.628 19.1077 111.297 19.4864C113.18 19.7449 114.736 20.2618 114.736 21.7769C114.736 23.5281 112.947 24.0851 111.336 24.0851C109.724 24.0851 108.108 23.488 107.149 21.7947L105.537 22.9087C106.767 25.2571 108.744 26.077 111.319 26.077C114.121 26.077 116.868 24.9006 116.889 21.7769C116.889 18.6487 114.259 17.8555 111.491 17.4544Z" fill="#B3B3B3"/>
<path d="M123.53 15.6812C120.572 15.6812 118.556 17.8112 118.556 20.7968C118.556 23.9428 120.555 25.9926 123.667 25.9926C125.129 25.9926 126.758 25.4356 127.738 24.3216L126.453 23.0248C125.876 23.7022 124.664 24.0809 123.706 24.0809C121.979 24.0809 120.788 23.105 120.616 21.6122H128.297C128.662 17.6107 126.586 15.6768 123.534 15.6768L123.53 15.6812ZM120.651 19.8833C120.956 18.3281 122.15 17.5126 123.59 17.5126C125.185 17.5126 126.281 18.3281 126.393 19.8833H120.651Z" fill="#B3B3B3"/>
<path d="M135.11 15.7793C133.88 15.7793 132.823 16.2963 131.92 17.3523L131.804 15.9175H129.999V25.752H131.976V20.6142C131.976 19.0011 133.051 17.6687 134.628 17.6687C136.206 17.6687 137.182 18.805 137.182 20.4983V25.7565H139.18V20.4805C139.18 17.4726 137.413 15.7793 135.11 15.7793Z" fill="#B3B3B3"/>
<path d="M145.19 19.861C143.981 19.7406 143.151 19.4243 143.135 18.6044C143.135 17.8291 143.943 17.4102 145.15 17.428C146.092 17.428 146.9 17.6286 147.648 18.3459L148.762 16.9913C147.704 16.0154 146.574 15.6768 145.112 15.6768C143.345 15.6768 141.175 16.4922 141.175 18.6623C141.191 20.8324 143.251 21.4296 145.034 21.6078C146.436 21.7459 147.243 22.0846 147.222 22.9625C147.201 23.8803 146.148 24.2369 145.206 24.2369C144.093 24.2146 142.764 23.8001 141.883 22.7842L140.848 24.2369C142.095 25.6896 143.633 26.0505 145.168 26.0505C147.627 26.0505 149.182 24.7761 149.2 22.9446C149.217 20.418 146.935 20.017 145.185 19.8566L145.19 19.861Z" fill="#B3B3B3"/>
<path d="M155.845 15.6812C152.887 15.6812 150.872 17.8112 150.872 20.7968C150.872 23.9428 152.871 25.9926 155.982 25.9926C157.444 25.9926 159.073 25.4356 160.053 24.3216L158.767 23.0248C158.192 23.7022 156.98 24.0809 156.021 24.0809C154.293 24.0809 153.102 23.105 152.931 21.6122H160.612C160.978 17.6107 158.901 15.6768 155.849 15.6768L155.845 15.6812ZM152.965 19.8833C153.27 18.3281 154.465 17.5126 155.905 17.5126C157.499 17.5126 158.596 18.3281 158.708 19.8833H152.965Z" fill="#B3B3B3"/>
<path d="M65.1329 35.5285C64.1056 35.3547 63.2416 35.1274 63.2416 34.3432C63.2416 33.4653 64.1872 33.1043 65.0727 33.1043C65.8506 33.1133 66.6544 33.4029 67.0328 34.0357L67.6904 33.6124C67.0714 32.5161 66.0871 32.3022 65.0512 32.3022C63.8476 32.3022 62.3604 32.8192 62.3819 34.3253C62.3819 35.7913 63.6887 36.1122 65.0297 36.3261C66.0741 36.491 67.0499 36.7494 67.0413 37.6496C67.0413 38.7146 65.9152 38.9908 65.0683 38.9908C64.2216 38.9908 63.276 38.5764 62.829 37.7209L62.1111 38.1531C62.6484 39.3606 63.8262 39.8242 65.0597 39.8242C66.3922 39.8242 67.8881 39.2983 67.8967 37.6763C67.8967 36.0454 66.5213 35.7558 65.1286 35.5285H65.1329Z" fill="#B3B3B3"/>
<path d="M73.5274 32.3247C71.3266 32.3247 69.9727 33.9868 69.9727 36.0812C69.9727 37.9796 71.1289 39.8199 73.5188 39.8199C75.9086 39.8199 77.0435 37.9706 77.0521 36.0812C77.0607 34.1695 75.8872 32.3336 73.5274 32.3247ZM73.5274 38.9733C71.6964 38.9733 70.8367 37.5472 70.8367 36.0812C70.8367 34.4993 71.7522 33.1491 73.5274 33.1491C75.3499 33.1714 76.1966 34.6152 76.188 36.0812C76.188 37.5071 75.3628 38.9733 73.5274 38.9733Z" fill="#B3B3B3"/>
<path d="M80.4647 32.4492H79.6008V39.677H84.2602V38.8392H80.4647V32.4492Z" fill="#B3B3B3"/>
<path d="M91.043 32.4492V36.7849C91.043 38.1975 90.1447 38.9819 89.0701 38.9819C87.9955 38.9819 87.0671 38.2287 87.0671 36.7938V32.458H86.2117V36.7938C86.2117 38.8169 87.5872 39.8106 89.0701 39.8106C90.5531 39.8106 91.8984 38.7991 91.8984 36.7938V32.458L91.8898 32.4492H91.043Z" fill="#B3B3B3"/>
<path d="M94.0476 33.2557H96.4288V39.677H97.2843V33.2557H99.6655V32.4492H94.0476V33.2557Z" fill="#B3B3B3"/>
<path d="M102.765 32.4492H101.896V39.677H102.765V32.4492Z" fill="#B3B3B3"/>
<path d="M108.868 32.3247C106.668 32.3247 105.314 33.9868 105.314 36.0812C105.314 37.9796 106.47 39.8199 108.86 39.8199C111.25 39.8199 112.385 37.9706 112.393 36.0812C112.402 34.1695 111.228 32.3336 108.868 32.3247ZM108.868 38.9733C107.037 38.9733 106.178 37.5472 106.178 36.0812C106.178 34.4993 107.093 33.1491 108.868 33.1491C110.691 33.1714 111.538 34.6152 111.529 36.0812C111.529 37.5071 110.704 38.9733 108.868 38.9733Z" fill="#B3B3B3"/>
<path d="M119.821 37.9836L115.548 32.4492H114.942V39.677H115.797V34.1648L120.078 39.677H120.681V32.4492H119.821V37.9836Z" fill="#B3B3B3"/>
<path d="M126.135 35.5285C125.107 35.3547 124.244 35.1274 124.244 34.3432C124.244 33.4653 125.189 33.1043 126.074 33.1043C126.852 33.1133 127.656 33.4029 128.034 34.0357L128.693 33.6124C128.073 32.5161 127.089 32.3022 126.053 32.3022C124.85 32.3022 123.362 32.8192 123.384 34.3253C123.384 35.7913 124.687 36.1122 126.032 36.3261C127.076 36.491 128.052 36.7494 128.043 37.6496C128.043 38.7146 126.917 38.9908 126.071 38.9908C125.223 38.9908 124.277 38.5764 123.831 37.7209L123.114 38.1531C123.65 39.3606 124.824 39.8242 126.062 39.8242C127.398 39.8242 128.889 39.2983 128.898 37.6763C128.898 36.0454 127.523 35.7558 126.13 35.5285H126.135Z" fill="#B3B3B3"/>
</g>
</g>
<defs>
<clipPath id="clip0_2710_2533">
<rect width="161" height="51" fill="white"/>
</clipPath>
</defs>
</svg>
