<svg width="212" height="122" viewBox="0 0 212 122" fill="none" xmlns="http://www.w3.org/2000/svg">
<mask id="mask0_2780_521" style="mask-type:alpha" maskUnits="userSpaceOnUse" x="0" y="0" width="212" height="122">
<rect width="212" height="122" fill="#D9D9D9"/>
</mask>
<g mask="url(#mask0_2780_521)">
</g>
<g clip-path="url(#clip0_2780_521)">
<path d="M61.7793 82.45L65.5823 90.1254C64.1076 91.3665 60.379 92.983 55.5905 92.983C46.6419 92.9854 39 86.2414 39 77.0227C39 67.8039 46.6083 60.9722 55.5929 60.9722C60.3814 60.9722 64.11 62.5838 65.5847 63.8248L61.7817 71.5002C60.1176 70.5371 58.2449 70.008 56.3291 69.9568C50.5048 69.9568 48.6632 73.7677 48.6632 76.952C48.6632 80.1362 50.5048 83.9959 56.3291 83.9959C58.2449 83.9447 60.1176 83.4131 61.7817 82.4476L61.7793 82.45Z" fill="white"/>
<path d="M94.8669 61.5303V80.3871C94.8669 88.0162 90.4453 92.9998 82.2088 92.9998C73.9723 92.9998 69.5051 88.0137 69.5051 80.3871V61.5303H78.4106V79.8751C78.4106 83.3129 79.6311 84.7905 82.2136 84.7905C84.7961 84.7905 85.9614 83.3154 85.9614 79.8751V61.5303H94.8669Z" fill="white"/>
<path d="M113.486 61.5303C119.011 61.5303 122.876 65.2729 122.876 71.2635C122.876 77.2541 119.423 79.5021 117.167 79.997L124.439 92.4219H114.452L108.789 81.8208V92.4219H99.8832V61.5327H113.486V61.5303ZM110.266 74.5648C111.877 74.5648 113.719 74.0064 113.719 71.556C113.719 69.1057 111.944 68.5473 110.338 68.5473H108.796V74.5379L110.266 74.5648Z" fill="white"/>
<path d="M137.198 61.5303V92.4195H128.293V61.5303H137.198Z" fill="white"/>
<path d="M157.045 60.9209C166.238 60.9209 173 67.8965 173 76.908C173 85.9195 166.509 92.9366 157.05 92.9366C147.59 92.9366 141.104 85.9415 141.104 76.908C141.104 67.8746 148.003 60.9209 157.045 60.9209ZM157.045 84.4615C161.073 84.4615 163.718 81.07 163.718 76.9056C163.718 72.7412 161.073 69.3472 157.045 69.3472C153.017 69.3472 150.396 72.7631 150.396 76.9056C150.396 81.048 153.04 84.4615 157.045 84.4615Z" fill="white"/>
<path d="M50.7325 49.042H61.024V53.5623H41.8965L52.8882 35.4784H43.4575V30.958H61.7529L50.7325 49.0395V49.042Z" fill="white"/>
<path d="M68.299 46.1918C68.299 48.9592 69.0255 50.0271 71.0205 50.0271C73.0155 50.0271 73.7421 48.9592 73.7421 46.1918V39.5063H78.5113V47.3695C78.5113 52.0825 76.195 53.972 71.0205 53.972C65.846 53.972 63.5297 52.0825 63.5297 47.3695V39.5063H68.299V46.1918Z" fill="white"/>
<path d="M90.769 53.9721C88.8819 53.9721 87.2658 53.1236 86.2419 51.9728H86.1892V53.5625H81.475V30H86.2443V40.8499C87.3761 39.7259 88.9107 39.0968 90.7714 39.0968C94.8117 39.0968 97.6412 42.4396 97.6412 46.5479C97.6412 50.6562 94.8117 53.9721 90.7714 53.9721H90.769ZM89.3399 43.232C87.5607 43.232 86.134 44.6022 86.134 46.5479C86.134 48.4936 87.4816 49.8346 89.3399 49.8346C91.1982 49.8346 92.5722 48.4643 92.5722 46.5479C92.5722 44.6315 91.1455 43.232 89.3399 43.232Z" fill="white"/>
<path d="M99.8735 39.5063H104.643V41.5324H104.696C104.696 41.5324 106.204 39.0942 108.925 39.0942C110.705 39.0942 111.944 39.9695 111.944 39.9695L109.952 44.0779C109.952 44.0779 109.062 43.3098 107.472 43.3098C104.993 43.3098 104.643 45.8041 104.643 46.1601V53.5575H99.8735V39.5039V39.5063Z" fill="white"/>
</g>
<defs>
<clipPath id="clip0_2780_521">
<rect width="134" height="63" fill="white" transform="translate(39 30)"/>
</clipPath>
</defs>
</svg>
