<svg width="212" height="122" viewBox="0 0 212 122" fill="none" xmlns="http://www.w3.org/2000/svg">
<mask id="mask0_2780_488" style="mask-type:alpha" maskUnits="userSpaceOnUse" x="0" y="0" width="212" height="122">
<rect width="212" height="122" fill="#D9D9D9"/>
</mask>
<g mask="url(#mask0_2780_488)">
</g>
<g clip-path="url(#clip0_2780_488)">
<mask id="mask1_2780_488" style="mask-type:luminance" maskUnits="userSpaceOnUse" x="25" y="36" width="161" height="51">
<path d="M185.65 36H25V87H185.65V36Z" fill="white"/>
</mask>
<g mask="url(#mask1_2780_488)">
<path d="M131.294 78.5337H130.988V78.3555L131.294 78.5337Z" fill="#B3B3B3"/>
<path d="M131.294 78.5337H130.988V78.3555L131.294 78.5337Z" fill="#B3B3B3"/>
<path d="M33.6998 60.3079V80.1108L25 86.9999V55.0542L33.6998 60.3079Z" fill="#B3B3B3"/>
<path d="M73.9623 36.2407V68.5474L65.2625 63.2937V43.1298L73.6572 36.4814L73.9623 36.2407Z" fill="#B3B3B3"/>
<path d="M73.9623 71.3681V87.0001H60.6074L39.9539 74.5275L36.051 72.1658V61.7296L39.1329 63.5922L47.433 68.6009L62.9114 77.9542L65.2625 79.3713V76.5551L62.9114 75.1335L49.449 67.0057L41.1531 61.9925L36.051 58.9088L33.6998 57.4918L25 52.2336V36.2407H37.7575L58.1273 48.544L62.9114 51.436V61.8722L50.6482 54.4661L36.051 45.6475L33.6998 44.2305V47.0512L36.051 48.4727L48.628 56.0703L62.9114 64.6973L65.2625 66.1144L73.9623 71.3681Z" fill="#B3B3B3"/>
<path d="M96.3912 57.7326L88.7659 47.8179H87.1154V61.7565H89.2861V51.9219L96.9113 61.7565H98.5447V47.8179H96.3912V57.7326Z" fill="#B3B3B3"/>
<path d="M104.747 51.6812C101.79 51.6812 99.7741 53.8112 99.7741 56.7968C99.7741 59.9428 101.773 61.9926 104.885 61.9926C106.346 61.9926 107.975 61.4356 108.955 60.3216L107.67 59.0248C107.094 59.7022 105.882 60.0809 104.923 60.0809C103.196 60.0809 102.005 59.105 101.833 57.6122H109.514C109.879 53.6107 107.803 51.6768 104.752 51.6768L104.747 51.6812ZM101.867 55.8833C102.173 54.3281 103.367 53.5126 104.807 53.5126C106.402 53.5126 107.498 54.3281 107.61 55.8833H101.867Z" fill="#B3B3B3"/>
<path d="M119.98 51.9974V51.9395H117.578L115.484 55.442L113.374 51.9395H110.993V51.9974L114.178 56.7565L110.778 61.6983V61.7563H113.163L115.484 58.1914L117.81 61.7563H120.191V61.6983L116.791 56.7565L119.98 51.9974Z" fill="#B3B3B3"/>
<path d="M126.587 60.0228C125.667 60.0228 125.225 59.4435 125.225 58.4097V53.7308H128.01V51.9573H125.246V49.1099L123.247 49.3281V51.9573H121.421V53.7308H123.247V58.4097C123.247 60.7179 124.421 61.9345 126.475 61.8766C127.146 61.8766 127.726 61.7384 128.375 61.4398L127.799 59.6885C127.417 59.8891 126.974 60.0272 126.591 60.0272L126.587 60.0228Z" fill="#B3B3B3"/>
<path d="M136.49 53.4544C134.724 53.196 133.224 52.8173 133.224 51.4625C133.224 50.1079 134.53 49.3504 136.336 49.3504C137.737 49.3727 139.026 49.9475 139.659 50.9056L141.291 49.7692C140.156 47.8978 138.219 47.4209 136.28 47.4209C133.86 47.4209 131.075 48.5349 131.092 51.4224C131.092 54.408 133.628 55.1077 136.297 55.4864C138.18 55.7449 139.736 56.2618 139.736 57.7769C139.736 59.5281 137.947 60.0851 136.336 60.0851C134.724 60.0851 133.108 59.488 132.149 57.7947L130.537 58.9087C131.767 61.2571 133.744 62.077 136.319 62.077C139.121 62.077 141.868 60.9006 141.889 57.7769C141.889 54.6487 139.259 53.8555 136.49 53.4544Z" fill="#B3B3B3"/>
<path d="M148.53 51.6812C145.572 51.6812 143.556 53.8112 143.556 56.7968C143.556 59.9428 145.555 61.9926 148.667 61.9926C150.129 61.9926 151.758 61.4356 152.738 60.3216L151.453 59.0248C150.876 59.7022 149.664 60.0809 148.706 60.0809C146.979 60.0809 145.788 59.105 145.616 57.6122H153.297C153.662 53.6107 151.586 51.6768 148.534 51.6768L148.53 51.6812ZM145.651 55.8833C145.956 54.3281 147.15 53.5126 148.59 53.5126C150.185 53.5126 151.281 54.3281 151.393 55.8833H145.651Z" fill="#B3B3B3"/>
<path d="M160.11 51.7793C158.88 51.7793 157.823 52.2963 156.92 53.3523L156.804 51.9175H154.999V61.752H156.976V56.6142C156.976 55.0011 158.051 53.6687 159.628 53.6687C161.206 53.6687 162.182 54.805 162.182 56.4983V61.7565H164.18V56.4805C164.18 53.4726 162.413 51.7793 160.11 51.7793Z" fill="#B3B3B3"/>
<path d="M170.19 55.861C168.981 55.7406 168.151 55.4243 168.135 54.6044C168.135 53.8291 168.943 53.4102 170.15 53.428C171.092 53.428 171.9 53.6286 172.648 54.3459L173.762 52.9913C172.704 52.0154 171.574 51.6768 170.112 51.6768C168.345 51.6768 166.175 52.4922 166.175 54.6623C166.191 56.8324 168.251 57.4296 170.034 57.6078C171.436 57.7459 172.243 58.0846 172.222 58.9625C172.201 59.8803 171.148 60.2369 170.206 60.2369C169.093 60.2146 167.764 59.8001 166.883 58.7842L165.848 60.2369C167.095 61.6896 168.633 62.0505 170.168 62.0505C172.627 62.0505 174.182 60.7761 174.2 58.9446C174.217 56.418 171.935 56.017 170.185 55.8566L170.19 55.861Z" fill="#B3B3B3"/>
<path d="M180.845 51.6812C177.887 51.6812 175.872 53.8112 175.872 56.7968C175.872 59.9428 177.871 61.9926 180.982 61.9926C182.443 61.9926 184.072 61.4356 185.053 60.3216L183.767 59.0248C183.191 59.7022 181.979 60.0809 181.021 60.0809C179.293 60.0809 178.102 59.105 177.931 57.6122H185.612C185.978 53.6107 183.901 51.6768 180.849 51.6768L180.845 51.6812ZM177.965 55.8833C178.27 54.3281 179.465 53.5126 180.905 53.5126C182.499 53.5126 183.596 54.3281 183.708 55.8833H177.965Z" fill="#B3B3B3"/>
<path d="M90.1328 71.5285C89.1055 71.3547 88.2415 71.1274 88.2415 70.3432C88.2415 69.4653 89.1871 69.1043 90.0726 69.1043C90.8506 69.1133 91.6543 69.4029 92.0327 70.0357L92.6903 69.6124C92.0714 68.5161 91.087 68.3022 90.0511 68.3022C88.8476 68.3022 87.3603 68.8192 87.3818 70.3253C87.3818 71.7913 88.6886 72.1122 90.0296 72.3261C91.0741 72.491 92.0498 72.7494 92.0412 73.6496C92.0412 74.7146 90.9151 74.9908 90.0682 74.9908C89.2215 74.9908 88.2759 74.5764 87.8289 73.7209L87.111 74.1531C87.6483 75.3606 88.8261 75.8242 90.0596 75.8242C91.3921 75.8242 92.888 75.2983 92.8966 73.6763C92.8966 72.0454 91.5212 71.7558 90.1285 71.5285H90.1328Z" fill="#B3B3B3"/>
<path d="M98.5273 68.3247C96.3266 68.3247 94.9726 69.9868 94.9726 72.0812C94.9726 73.9796 96.1289 75.8199 98.5187 75.8199C100.909 75.8199 102.043 73.9706 102.052 72.0812C102.061 70.1695 100.887 68.3336 98.5273 68.3247ZM98.5273 74.9733C96.6963 74.9733 95.8366 73.5472 95.8366 72.0812C95.8366 70.4993 96.7521 69.1491 98.5273 69.1491C100.35 69.1714 101.197 70.6152 101.188 72.0812C101.188 73.5071 100.363 74.9733 98.5273 74.9733Z" fill="#B3B3B3"/>
<path d="M105.465 68.4492H104.601V75.677H109.26V74.8392H105.465V68.4492Z" fill="#B3B3B3"/>
<path d="M116.043 68.4492V72.7849C116.043 74.1975 115.145 74.9819 114.07 74.9819C112.996 74.9819 112.067 74.2287 112.067 72.7938V68.458H111.212V72.7938C111.212 74.8169 112.587 75.8106 114.07 75.8106C115.553 75.8106 116.898 74.7991 116.898 72.7938V68.458L116.89 68.4492H116.043Z" fill="#B3B3B3"/>
<path d="M119.048 69.2557H121.429V75.677H122.284V69.2557H124.666V68.4492H119.048V69.2557Z" fill="#B3B3B3"/>
<path d="M127.765 68.4492H126.896V75.677H127.765V68.4492Z" fill="#B3B3B3"/>
<path d="M133.868 68.3247C131.668 68.3247 130.314 69.9868 130.314 72.0812C130.314 73.9796 131.47 75.8199 133.86 75.8199C136.25 75.8199 137.385 73.9706 137.393 72.0812C137.401 70.1695 136.228 68.3336 133.868 68.3247ZM133.868 74.9733C132.037 74.9733 131.178 73.5472 131.178 72.0812C131.178 70.4993 132.093 69.1491 133.868 69.1491C135.691 69.1714 136.538 70.6152 136.529 72.0812C136.529 73.5071 135.704 74.9733 133.868 74.9733Z" fill="#B3B3B3"/>
<path d="M144.821 73.9836L140.548 68.4492H139.942V75.677H140.797V70.1648L145.078 75.677H145.681V68.4492H144.821V73.9836Z" fill="#B3B3B3"/>
<path d="M151.135 71.5285C150.107 71.3547 149.244 71.1274 149.244 70.3432C149.244 69.4653 150.189 69.1043 151.074 69.1043C151.852 69.1133 152.656 69.4029 153.034 70.0357L153.693 69.6124C153.073 68.5161 152.089 68.3022 151.053 68.3022C149.85 68.3022 148.362 68.8192 148.384 70.3253C148.384 71.7913 149.687 72.1122 151.032 72.3261C152.076 72.491 153.052 72.7494 153.043 73.6496C153.043 74.7146 151.917 74.9908 151.071 74.9908C150.223 74.9908 149.277 74.5764 148.831 73.7209L148.114 74.1531C148.65 75.3606 149.824 75.8242 151.062 75.8242C152.398 75.8242 153.889 75.2983 153.898 73.6763C153.898 72.0454 152.523 71.7558 151.13 71.5285H151.135Z" fill="#B3B3B3"/>
</g>
</g>
<defs>
<clipPath id="clip0_2780_488">
<rect width="161" height="51" fill="white" transform="translate(25 36)"/>
</clipPath>
</defs>
</svg>
