<svg width="60" height="60" viewBox="0 0 60 60" fill="none" xmlns="http://www.w3.org/2000/svg">
<circle cx="30" cy="30" r="30" fill="#1A1D41"/>
<path d="M35.45 40.75C34.32 40.75 33.13 40.48 31.9 39.96C30.7 39.45 29.49 38.75 28.31 37.9C27.14 37.04 26.01 36.08 24.94 35.03C23.88 33.96 22.92 32.83 22.07 31.67C21.21 30.47 20.52 29.27 20.03 28.11C19.51 26.87 19.25 25.67 19.25 24.54C19.25 23.76 19.39 23.02 19.66 22.33C19.94 21.62 20.39 20.96 21 20.39C21.77 19.63 22.65 19.25 23.59 19.25C23.98 19.25 24.38 19.34 24.72 19.5C25.11 19.68 25.44 19.95 25.68 20.31L28 23.58C28.21 23.87 28.37 24.15 28.48 24.43C28.61 24.73 28.68 25.03 28.68 25.32C28.68 25.7 28.57 26.07 28.36 26.42C28.21 26.69 27.98 26.98 27.69 27.27L27.01 27.98C27.02 28.01 27.03 28.03 27.04 28.05C27.16 28.26 27.4 28.62 27.86 29.16C28.35 29.72 28.81 30.23 29.27 30.7C29.86 31.28 30.35 31.74 30.81 32.12C31.38 32.6 31.75 32.84 31.97 32.95L31.95 33L32.68 32.28C32.99 31.97 33.29 31.74 33.58 31.59C34.13 31.25 34.83 31.19 35.53 31.48C35.79 31.59 36.07 31.74 36.37 31.95L39.69 34.31C40.06 34.56 40.33 34.88 40.49 35.26C40.64 35.64 40.71 35.99 40.71 36.34C40.71 36.82 40.6 37.3 40.39 37.75C40.18 38.2 39.92 38.59 39.59 38.95C39.02 39.58 38.4 40.03 37.68 40.32C36.99 40.6 36.24 40.75 35.45 40.75ZM23.59 20.75C23.04 20.75 22.53 20.99 22.04 21.47C21.58 21.9 21.26 22.37 21.06 22.88C20.85 23.4 20.75 23.95 20.75 24.54C20.75 25.47 20.97 26.48 21.41 27.52C21.86 28.58 22.49 29.68 23.29 30.78C24.09 31.88 25 32.95 26 33.96C27 34.95 28.08 35.87 29.19 36.68C30.27 37.47 31.38 38.11 32.48 38.57C34.19 39.3 35.79 39.47 37.11 38.92C37.62 38.71 38.07 38.39 38.48 37.93C38.71 37.68 38.89 37.41 39.04 37.09C39.16 36.84 39.22 36.58 39.22 36.32C39.22 36.16 39.19 36 39.11 35.82C39.08 35.76 39.02 35.65 38.83 35.52L35.51 33.16C35.31 33.02 35.13 32.92 34.96 32.85C34.74 32.76 34.65 32.67 34.31 32.88C34.11 32.98 33.93 33.13 33.73 33.33L32.97 34.08C32.58 34.46 31.98 34.55 31.52 34.38L31.25 34.26C30.84 34.04 30.36 33.7 29.83 33.25C29.35 32.84 28.83 32.36 28.2 31.74C27.71 31.24 27.22 30.71 26.71 30.12C26.24 29.57 25.9 29.1 25.69 28.71L25.57 28.41C25.51 28.18 25.49 28.05 25.49 27.91C25.49 27.55 25.62 27.23 25.87 26.98L26.62 26.2C26.82 26 26.97 25.81 27.07 25.64C27.15 25.51 27.18 25.4 27.18 25.3C27.18 25.22 27.15 25.1 27.1 24.98C27.03 24.82 26.92 24.64 26.78 24.45L24.46 21.17C24.36 21.03 24.24 20.93 24.09 20.86C23.93 20.79 23.76 20.75 23.59 20.75ZM31.95 33.01L31.79 33.69L32.06 32.99C32.01 32.98 31.97 32.99 31.95 33.01Z" fill="white"/>
</svg>
