<svg width="40" height="40" viewBox="0 0 40 40" fill="none" xmlns="http://www.w3.org/2000/svg">
<path d="M30.1667 29.5835H9.83332C5.96666 29.5835 3.75 27.3668 3.75 23.5002V3.3335C3.75 2.65016 4.31667 2.0835 5 2.0835H35C35.6833 2.0835 36.25 2.65016 36.25 3.3335V23.5002C36.25 27.3668 34.0333 29.5835 30.1667 29.5835ZM6.25 4.5835V23.5002C6.25 25.9835 7.34999 27.0835 9.83332 27.0835H30.15C32.6333 27.0835 33.7333 25.9835 33.7333 23.5002V4.5835H6.25Z" fill="white"/>
<path d="M36.6666 4.5835H3.33325C2.64992 4.5835 2.08325 4.01683 2.08325 3.3335C2.08325 2.65016 2.64992 2.0835 3.33325 2.0835H36.6666C37.3499 2.0835 37.9166 2.65016 37.9166 3.3335C37.9166 4.01683 37.3499 4.5835 36.6666 4.5835Z" fill="white"/>
<path d="M13.3338 37.9168C12.8671 37.9168 12.4338 37.6668 12.2171 37.2335C11.9004 36.6168 12.1505 35.8668 12.7838 35.5501L18.7504 32.5668V28.3335C18.7504 27.6502 19.3171 27.0835 20.0004 27.0835C20.6838 27.0835 21.2504 27.6502 21.2504 28.3335V33.3335C21.2504 33.8002 20.9838 34.2335 20.5504 34.4502L13.8838 37.7835C13.7171 37.8669 13.5171 37.9168 13.3338 37.9168Z" fill="white"/>
<path d="M26.6667 37.9166C26.4833 37.9166 26.2834 37.8666 26.1167 37.7833L19.45 34.45C18.8334 34.1333 18.5833 33.3833 18.8833 32.7666C19.2 32.15 19.95 31.9 20.5667 32.2L27.2333 35.5333C27.85 35.85 28.1 36.5999 27.8 37.2166C27.5667 37.6666 27.1167 37.9166 26.6667 37.9166Z" fill="white"/>
<path d="M12.5 19.5831C12.15 19.5831 11.7833 19.4332 11.5333 19.1332C11.0833 18.5998 11.1666 17.8165 11.6999 17.3665L16.95 12.9831C17.4333 12.5831 18.0499 12.4165 18.6333 12.5165C19.2333 12.6165 19.75 12.9831 20.0666 13.5164L21.8166 16.4331L26.6999 12.3665C27.2333 11.9332 28.0166 11.9998 28.4666 12.5331C28.9166 13.0664 28.8333 13.8498 28.3 14.2998L23.0499 18.6831C22.5666 19.0831 21.95 19.2498 21.3666 19.1498C20.7666 19.0498 20.2499 18.6832 19.9333 18.1498L18.1833 15.2332L13.3 19.2998C13.0666 19.4831 12.7833 19.5831 12.5 19.5831Z" fill="white"/>
</svg>
