<svg width="30" height="30" viewBox="0 0 30 30" fill="none" xmlns="http://www.w3.org/2000/svg">
<path d="M15.1496 16.9125C15.1246 16.9125 15.0871 16.9125 15.0621 16.9125C15.0246 16.9125 14.9746 16.9125 14.9371 16.9125C12.0996 16.825 9.97461 14.6125 9.97461 11.8875C9.97461 9.11248 12.2371 6.84998 15.0121 6.84998C17.7871 6.84998 20.0496 9.11248 20.0496 11.8875C20.0371 14.625 17.8996 16.825 15.1871 16.9125C15.1621 16.9125 15.1621 16.9125 15.1496 16.9125ZM14.9996 8.71248C13.2496 8.71248 11.8371 10.1375 11.8371 11.875C11.8371 13.5875 13.1746 14.975 14.8746 15.0375C14.9121 15.025 15.0371 15.025 15.1621 15.0375C16.8371 14.95 18.1496 13.575 18.1621 11.875C18.1621 10.1375 16.7496 8.71248 14.9996 8.71248Z" fill="white"/>
<path d="M15 28.4375C11.6375 28.4375 8.42504 27.1875 5.93754 24.9125C5.71254 24.7125 5.61254 24.4125 5.63754 24.125C5.80004 22.6375 6.72504 21.25 8.26254 20.225C11.9875 17.75 18.025 17.75 21.7375 20.225C23.275 21.2625 24.2 22.6375 24.3625 24.125C24.4 24.425 24.2875 24.7125 24.0625 24.9125C21.575 27.1875 18.3625 28.4375 15 28.4375ZM7.60004 23.875C9.67504 25.6125 12.2875 26.5625 15 26.5625C17.7125 26.5625 20.325 25.6125 22.4 23.875C22.175 23.1125 21.575 22.375 20.6875 21.775C17.6125 19.725 12.4 19.725 9.30004 21.775C8.41254 22.375 7.82504 23.1125 7.60004 23.875Z" fill="white"/>
<path d="M15 28.4375C7.5875 28.4375 1.5625 22.4125 1.5625 15C1.5625 7.5875 7.5875 1.5625 15 1.5625C22.4125 1.5625 28.4375 7.5875 28.4375 15C28.4375 22.4125 22.4125 28.4375 15 28.4375ZM15 3.4375C8.625 3.4375 3.4375 8.625 3.4375 15C3.4375 21.375 8.625 26.5625 15 26.5625C21.375 26.5625 26.5625 21.375 26.5625 15C26.5625 8.625 21.375 3.4375 15 3.4375Z" fill="white"/>
</svg>
