<svg width="41" height="40" viewBox="0 0 41 40" fill="none" xmlns="http://www.w3.org/2000/svg">
<path d="M32.3708 27.9167C31.6875 27.9167 31.1208 27.35 31.1208 26.6667V10.8333C31.1208 9.68333 30.1875 8.75 29.0375 8.75H21.5375C20.8541 8.75 20.2875 8.18333 20.2875 7.5C20.2875 6.81667 20.8541 6.25 21.5375 6.25H29.0375C31.5708 6.25 33.6208 8.3 33.6208 10.8333V26.6667C33.6208 27.35 33.0541 27.9167 32.3708 27.9167Z" fill="white"/>
<path d="M25.7041 12.9165C25.4208 12.9165 25.1375 12.8166 24.9041 12.6332L19.9041 8.46655C19.6208 8.23322 19.4541 7.88322 19.4541 7.49988C19.4541 7.11655 19.6208 6.78321 19.9041 6.53321L24.9041 2.36655C25.4375 1.91655 26.2208 1.99989 26.6708 2.53322C27.1208 3.06656 27.0374 3.84988 26.5041 4.29989L22.6541 7.49988L26.5041 10.6999C27.0374 11.1499 27.1041 11.9332 26.6708 12.4665C26.4208 12.7665 26.0541 12.9165 25.7041 12.9165Z" fill="white"/>
<path d="M9.03748 27.9167C8.35414 27.9167 7.78748 27.35 7.78748 26.6667V15C7.78748 14.3167 8.35414 13.75 9.03748 13.75C9.72081 13.75 10.2875 14.3167 10.2875 15V26.6667C10.2875 27.35 9.72081 27.9167 9.03748 27.9167Z" fill="white"/>
<path d="M9.45414 15.4166C5.77081 15.4166 2.78748 12.4333 2.78748 8.74992C2.78748 5.06659 5.77081 2.08325 9.45414 2.08325C13.1375 2.08325 16.1208 5.06659 16.1208 8.74992C16.1208 12.4333 13.1375 15.4166 9.45414 15.4166ZM9.45414 4.58325C7.15414 4.58325 5.28748 6.44992 5.28748 8.74992C5.28748 11.0499 7.15414 12.9166 9.45414 12.9166C11.7541 12.9166 13.6208 11.0499 13.6208 8.74992C13.6208 6.44992 11.7541 4.58325 9.45414 4.58325Z" fill="white"/>
<path d="M9.03748 37.9167C5.58748 37.9167 2.78748 35.1167 2.78748 31.6667C2.78748 28.2167 5.58748 25.4167 9.03748 25.4167C12.4875 25.4167 15.2875 28.2167 15.2875 31.6667C15.2875 35.1167 12.4875 37.9167 9.03748 37.9167ZM9.03748 27.9167C6.97081 27.9167 5.28748 29.6001 5.28748 31.6667C5.28748 33.7334 6.97081 35.4167 9.03748 35.4167C11.1041 35.4167 12.7875 33.7334 12.7875 31.6667C12.7875 29.6001 11.1041 27.9167 9.03748 27.9167Z" fill="white"/>
<path d="M32.3707 37.9167C28.9207 37.9167 26.1207 35.1167 26.1207 31.6667C26.1207 28.2167 28.9207 25.4167 32.3707 25.4167C35.8207 25.4167 38.6207 28.2167 38.6207 31.6667C38.6207 35.1167 35.8207 37.9167 32.3707 37.9167ZM32.3707 27.9167C30.3041 27.9167 28.6207 29.6001 28.6207 31.6667C28.6207 33.7334 30.3041 35.4167 32.3707 35.4167C34.4374 35.4167 36.1207 33.7334 36.1207 31.6667C36.1207 29.6001 34.4374 27.9167 32.3707 27.9167Z" fill="white"/>
</svg>
