<svg width="30" height="30" viewBox="0 0 30 30" fill="none" xmlns="http://www.w3.org/2000/svg">
<path d="M23.75 20.9375C23.2375 20.9375 22.8125 20.5125 22.8125 20V8.125C22.8125 7.2625 22.1125 6.5625 21.25 6.5625H15.625C15.1125 6.5625 14.6875 6.1375 14.6875 5.625C14.6875 5.1125 15.1125 4.6875 15.625 4.6875H21.25C23.15 4.6875 24.6875 6.225 24.6875 8.125V20C24.6875 20.5125 24.2625 20.9375 23.75 20.9375Z" fill="white"/>
<path d="M18.75 9.68747C18.5375 9.68747 18.325 9.61247 18.15 9.47497L14.4 6.34997C14.1875 6.17497 14.0625 5.91247 14.0625 5.62497C14.0625 5.33747 14.1875 5.08747 14.4 4.89997L18.15 1.77497C18.55 1.43747 19.1375 1.49998 19.475 1.89998C19.8125 2.29998 19.75 2.88747 19.35 3.22497L16.4625 5.62497L19.35 8.02497C19.75 8.36247 19.8 8.94997 19.475 9.34997C19.2875 9.57497 19.0125 9.68747 18.75 9.68747Z" fill="white"/>
<path d="M6.25 20.9375C5.7375 20.9375 5.3125 20.5125 5.3125 20V11.25C5.3125 10.7375 5.7375 10.3125 6.25 10.3125C6.7625 10.3125 7.1875 10.7375 7.1875 11.25V20C7.1875 20.5125 6.7625 20.9375 6.25 20.9375Z" fill="white"/>
<path d="M6.5625 11.5625C3.8 11.5625 1.5625 9.325 1.5625 6.5625C1.5625 3.8 3.8 1.5625 6.5625 1.5625C9.325 1.5625 11.5625 3.8 11.5625 6.5625C11.5625 9.325 9.325 11.5625 6.5625 11.5625ZM6.5625 3.4375C4.8375 3.4375 3.4375 4.8375 3.4375 6.5625C3.4375 8.2875 4.8375 9.6875 6.5625 9.6875C8.2875 9.6875 9.6875 8.2875 9.6875 6.5625C9.6875 4.8375 8.2875 3.4375 6.5625 3.4375Z" fill="white"/>
<path d="M6.25 28.4375C3.6625 28.4375 1.5625 26.3375 1.5625 23.75C1.5625 21.1625 3.6625 19.0625 6.25 19.0625C8.8375 19.0625 10.9375 21.1625 10.9375 23.75C10.9375 26.3375 8.8375 28.4375 6.25 28.4375ZM6.25 20.9375C4.7 20.9375 3.4375 22.2 3.4375 23.75C3.4375 25.3 4.7 26.5625 6.25 26.5625C7.8 26.5625 9.0625 25.3 9.0625 23.75C9.0625 22.2 7.8 20.9375 6.25 20.9375Z" fill="white"/>
<path d="M23.75 28.4375C21.1625 28.4375 19.0625 26.3375 19.0625 23.75C19.0625 21.1625 21.1625 19.0625 23.75 19.0625C26.3375 19.0625 28.4375 21.1625 28.4375 23.75C28.4375 26.3375 26.3375 28.4375 23.75 28.4375ZM23.75 20.9375C22.2 20.9375 20.9375 22.2 20.9375 23.75C20.9375 25.3 22.2 26.5625 23.75 26.5625C25.3 26.5625 26.5625 25.3 26.5625 23.75C26.5625 22.2 25.3 20.9375 23.75 20.9375Z" fill="white"/>
</svg>
