<svg width="40" height="40" viewBox="0 0 40 40" fill="none" xmlns="http://www.w3.org/2000/svg">
<path d="M19.9998 37.9167C19.5998 37.9167 19.1998 37.8667 18.8165 37.7501C10.1665 35.3667 3.89978 27.2833 3.89978 18.5167V11.2C3.89978 9.3333 5.24979 7.31672 6.98312 6.60005L16.2665 2.8C18.6831 1.81667 21.3331 1.81667 23.7331 2.8L33.0164 6.60005C34.7498 7.31672 36.0998 9.3333 36.0998 11.2V18.5167C36.0998 27.2667 29.8164 35.3501 21.1831 37.7501C20.7998 37.8667 20.3998 37.9167 19.9998 37.9167ZM19.9998 4.58335C19.0498 4.58335 18.1164 4.76671 17.2164 5.13337L7.93314 8.93332C7.13314 9.26665 6.39978 10.35 6.39978 11.2166V18.5333C6.39978 26.1833 11.8998 33.25 19.4831 35.35C19.8165 35.4501 20.1831 35.4501 20.5164 35.35C28.0998 33.25 33.5998 26.1833 33.5998 18.5333V11.2166C33.5998 10.35 32.8664 9.26665 32.0664 8.93332L22.7831 5.13337C21.8831 4.76671 20.9498 4.58335 19.9998 4.58335Z" fill="white"/>
<path d="M20 22.0832C17.4666 22.0832 15.4166 20.0332 15.4166 17.4998C15.4166 14.9665 17.4666 12.9165 20 12.9165C22.5333 12.9165 24.5833 14.9665 24.5833 17.4998C24.5833 20.0332 22.5333 22.0832 20 22.0832ZM20 15.4165C18.85 15.4165 17.9166 16.3498 17.9166 17.4998C17.9166 18.6498 18.85 19.5832 20 19.5832C21.15 19.5832 22.0833 18.6498 22.0833 17.4998C22.0833 16.3498 21.15 15.4165 20 15.4165Z" fill="white"/>
<path d="M20 27.0835C19.3167 27.0835 18.75 26.5168 18.75 25.8335V20.8335C18.75 20.1502 19.3167 19.5835 20 19.5835C20.6833 19.5835 21.25 20.1502 21.25 20.8335V25.8335C21.25 26.5168 20.6833 27.0835 20 27.0835Z" fill="white"/>
</svg>
