<svg width="48" height="48" viewBox="0 0 48 48" fill="none" xmlns="http://www.w3.org/2000/svg">
<path d="M20.6978 42.8113L33.7888 40.2809C39.4179 39.1928 42.4673 34.6821 41.3792 29.053L38.2162 12.6892C37.1281 7.06006 32.6174 4.01069 26.9883 5.09876L18.921 6.65813C16.4009 7.14523 14.2343 8.58252 12.7923 10.6946L8.73963 16.6893C7.29759 18.8014 6.79078 21.3607 7.27788 23.8808L9.46985 35.2209C10.5579 40.85 15.0686 43.8994 20.6978 42.8113ZM27.4627 7.55333C31.6846 6.73727 34.9456 8.9418 35.7616 13.1637L38.9246 29.5274C39.7407 33.7493 37.5362 37.0103 33.3143 37.8263L20.2233 40.3567C16.0014 41.1728 12.7405 38.9683 11.9244 34.7464L9.73245 23.4063C9.37186 21.5408 9.75659 19.6671 10.829 18.1018L14.8817 12.1071C15.9377 10.5449 17.5494 9.4865 19.4149 9.12592L27.4659 7.56971L27.4627 7.55333Z" fill="white"/>
<path d="M30.0691 34.2098C30.38 34.1497 30.6688 33.9751 30.8668 33.6822L33.507 29.7768C33.8898 29.2106 33.7379 28.425 33.1717 28.0422L29.2663 25.402C28.7 25.0192 27.9146 25.171 27.5317 25.7373C27.1489 26.3036 27.3008 27.0892 27.867 27.472L30.7375 29.4124L28.797 32.2828C28.4141 32.8491 28.566 33.6347 29.1322 34.0175C29.4252 34.2155 29.7582 34.2699 30.0691 34.2098Z" fill="white"/>
<path d="M21.887 35.7913C22.1979 35.7312 22.4867 35.5566 22.6847 35.2637C23.0675 34.6974 22.9157 33.9119 22.3494 33.5291L19.479 31.5886L21.4195 28.7182C21.8023 28.1519 21.6505 27.3664 21.0842 26.9835C20.5179 26.6007 19.7325 26.7525 19.3497 27.3188L16.7095 31.2242C16.3267 31.7905 16.4785 32.576 17.0448 32.9588L20.9502 35.599C21.2431 35.797 21.5761 35.8514 21.887 35.7913Z" fill="white"/>
</svg>
