<svg width="40" height="40" viewBox="0 0 40 40" fill="none" xmlns="http://www.w3.org/2000/svg">
<path d="M12.5 25.4167C12.1833 25.4167 11.8667 25.3 11.6167 25.05C11.1333 24.5667 11.1333 23.7667 11.6167 23.2833L16.95 17.95C17.2167 17.6833 17.5667 17.55 17.95 17.5833C18.3167 17.6167 18.65 17.8167 18.8667 18.1333L20.6833 20.8667L26.6 14.95C27.0833 14.4667 27.8833 14.4667 28.3667 14.95C28.85 15.4333 28.85 16.2333 28.3667 16.7167L21.3667 23.7167C21.1 23.9833 20.75 24.1167 20.3667 24.0833C20 24.05 19.6667 23.85 19.45 23.5333L17.6333 20.8L13.3833 25.05C13.1333 25.3 12.8167 25.4167 12.5 25.4167Z" fill="white"/>
<path d="M27.5 20.4167C26.8167 20.4167 26.25 19.85 26.25 19.1667V17.0833H24.1667C23.4833 17.0833 22.9167 16.5167 22.9167 15.8333C22.9167 15.15 23.4833 14.5833 24.1667 14.5833H27.5C28.1833 14.5833 28.75 15.15 28.75 15.8333V19.1667C28.75 19.85 28.1833 20.4167 27.5 20.4167Z" fill="white"/>
<path d="M25 37.9167H15C5.95 37.9167 2.08334 34.05 2.08334 25V15C2.08334 5.95001 5.95 2.08334 15 2.08334H25C34.05 2.08334 37.9167 5.95001 37.9167 15V25C37.9167 34.05 34.05 37.9167 25 37.9167ZM15 4.58334C7.31667 4.58334 4.58334 7.31668 4.58334 15V25C4.58334 32.6833 7.31667 35.4167 15 35.4167H25C32.6833 35.4167 35.4167 32.6833 35.4167 25V15C35.4167 7.31668 32.6833 4.58334 25 4.58334H15Z" fill="white"/>
</svg>
