<svg width="40" height="40" viewBox="0 0 40 40" fill="none" xmlns="http://www.w3.org/2000/svg">
<path d="M20.0002 37.9168C18.8836 37.9168 17.7502 37.6335 16.7502 37.0501L6.85022 31.3335C4.85022 30.1668 3.60022 28.0168 3.60022 25.7001V14.3002C3.60022 11.9835 4.85022 9.83352 6.85022 8.66685L16.7502 2.9502C18.7502 1.78353 21.2336 1.78353 23.2502 2.9502L33.1502 8.66685C35.1502 9.83352 36.4002 11.9835 36.4002 14.3002V25.7001C36.4002 28.0168 35.1502 30.1668 33.1502 31.3335L23.2502 37.0501C22.2502 37.6335 21.1169 37.9168 20.0002 37.9168ZM20.0002 4.5835C19.3169 4.5835 18.6169 4.76684 18.0002 5.11684L8.10022 10.8335C6.86689 11.5502 6.10022 12.8669 6.10022 14.3002V25.7001C6.10022 27.1168 6.86689 28.4502 8.10022 29.1668L18.0002 34.8835C19.2336 35.6001 20.7669 35.6001 22.0002 34.8835L31.9002 29.1668C33.1336 28.4502 33.9002 27.1335 33.9002 25.7001V14.3002C33.9002 12.8835 33.1336 11.5502 31.9002 10.8335L22.0002 5.11684C21.3836 4.76684 20.6836 4.5835 20.0002 4.5835Z" fill="white"/>
<path d="M19.9999 19.5835C17.1666 19.5835 14.8666 17.2835 14.8666 14.4502C14.8666 11.6168 17.1666 9.31689 19.9999 9.31689C22.8332 9.31689 25.1332 11.6168 25.1332 14.4502C25.1332 17.2835 22.8332 19.5835 19.9999 19.5835ZM19.9999 11.8169C18.5499 11.8169 17.3666 13.0002 17.3666 14.4502C17.3666 15.9002 18.5499 17.0835 19.9999 17.0835C21.4499 17.0835 22.6332 15.9002 22.6332 14.4502C22.6332 13.0002 21.4499 11.8169 19.9999 11.8169Z" fill="white"/>
<path d="M26.6667 29.0167C25.9834 29.0167 25.4167 28.4501 25.4167 27.7667C25.4167 25.4667 22.9834 23.5835 20 23.5835C17.0167 23.5835 14.5834 25.4667 14.5834 27.7667C14.5834 28.4501 14.0167 29.0167 13.3334 29.0167C12.65 29.0167 12.0834 28.4501 12.0834 27.7667C12.0834 24.0834 15.6334 21.0835 20 21.0835C24.3667 21.0835 27.9167 24.0834 27.9167 27.7667C27.9167 28.4501 27.35 29.0167 26.6667 29.0167Z" fill="white"/>
</svg>
