<svg width="30" height="30" viewBox="0 0 30 30" fill="none" xmlns="http://www.w3.org/2000/svg">
<path d="M18.75 28.4375H11.25C4.4625 28.4375 1.5625 25.5375 1.5625 18.75V11.25C1.5625 4.4625 4.4625 1.5625 11.25 1.5625H18.75C25.5375 1.5625 28.4375 4.4625 28.4375 11.25V18.75C28.4375 25.5375 25.5375 28.4375 18.75 28.4375ZM11.25 3.4375C5.4875 3.4375 3.4375 5.4875 3.4375 11.25V18.75C3.4375 24.5125 5.4875 26.5625 11.25 26.5625H18.75C24.5125 26.5625 26.5625 24.5125 26.5625 18.75V11.25C26.5625 5.4875 24.5125 3.4375 18.75 3.4375H11.25Z" fill="white"/>
<path d="M26.8504 9.82501H3.15039C2.63789 9.82501 2.21289 9.40001 2.21289 8.88751C2.21289 8.37501 2.62539 7.95001 3.15039 7.95001H26.8504C27.3629 7.95001 27.7879 8.37501 27.7879 8.88751C27.7879 9.40001 27.3754 9.82501 26.8504 9.82501Z" fill="white"/>
<path d="M10.6504 9.65001C10.1379 9.65001 9.71289 9.22501 9.71289 8.71251V2.63751C9.71289 2.12501 10.1379 1.70001 10.6504 1.70001C11.1629 1.70001 11.5879 2.12501 11.5879 2.63751V8.71251C11.5879 9.22501 11.1629 9.65001 10.6504 9.65001Z" fill="white"/>
<path d="M19.3496 9.08751C18.8371 9.08751 18.4121 8.66251 18.4121 8.15001V2.63751C18.4121 2.12501 18.8371 1.70001 19.3496 1.70001C19.8621 1.70001 20.2871 2.12501 20.2871 2.63751V8.15001C20.2871 8.67501 19.8746 9.08751 19.3496 9.08751Z" fill="white"/>
<path d="M13.8625 22.65C13.4125 22.65 12.9875 22.5375 12.6 22.325C11.75 21.825 11.25 20.825 11.25 19.5625V16.5625C11.25 15.3 11.75 14.2875 12.6125 13.7875C13.475 13.2875 14.6 13.3625 15.6875 14L18.2875 15.5C19.375 16.125 20.0125 17.0625 20.0125 18.0625C20.0125 19.0625 19.375 20 18.275 20.625L15.675 22.125C15.075 22.475 14.45 22.65 13.8625 22.65ZM13.875 15.3375C13.75 15.3375 13.6375 15.3625 13.55 15.4125C13.2875 15.5625 13.125 15.9875 13.125 16.5625V19.5625C13.125 20.125 13.2875 20.55 13.55 20.7125C13.8125 20.8625 14.2625 20.7875 14.75 20.5L17.35 19C17.8375 18.7125 18.1375 18.3625 18.1375 18.0625C18.1375 17.7625 17.85 17.4125 17.35 17.125L14.75 15.625C14.425 15.4375 14.1125 15.3375 13.875 15.3375Z" fill="white"/>
</svg>
