<svg width="30" height="30" viewBox="0 0 30 30" fill="none" xmlns="http://www.w3.org/2000/svg">
<path d="M17.7254 15.9375H12.2754C11.7629 15.9375 11.3379 15.5125 11.3379 15C11.3379 14.4875 11.7629 14.0625 12.2754 14.0625H17.7254C18.2379 14.0625 18.6629 14.4875 18.6629 15C18.6629 15.5125 18.2504 15.9375 17.7254 15.9375Z" fill="white"/>
<path d="M28.125 19.0625C27.6125 19.0625 27.1875 18.6375 27.1875 18.125V11.875C27.1875 11.3625 27.6125 10.9375 28.125 10.9375C28.6375 10.9375 29.0625 11.3625 29.0625 11.875V18.125C29.0625 18.6375 28.6375 19.0625 28.125 19.0625Z" fill="white"/>
<path d="M1.875 19.0625C1.3625 19.0625 0.9375 18.6375 0.9375 18.125V11.875C0.9375 11.3625 1.3625 10.9375 1.875 10.9375C2.3875 10.9375 2.8125 11.3625 2.8125 11.875V18.125C2.8125 18.6375 2.3875 19.0625 1.875 19.0625Z" fill="white"/>
<path d="M3.75 15C3.75 12.15 4.83333 8.75 10 8.75L20 8.75C25.1667 8.75 26.25 12.15 26.25 15C26.25 17.85 25.1667 21.25 20 21.25L10 21.25C4.83333 21.25 3.75 17.85 3.75 15ZM23.75 15C23.75 12.3 22.7 11.25 20 11.25L10 11.25C7.3 11.25 6.25 12.3 6.25 15C6.25 17.7 7.3 18.75 10 18.75L20 18.75C22.7 18.75 23.75 17.7 23.75 15Z" fill="white"/>
</svg>
