<svg width="30" height="30" viewBox="0 0 30 30" fill="none" xmlns="http://www.w3.org/2000/svg">
<path d="M23.8627 15.7375C23.6627 15.7375 23.4627 15.675 23.2877 15.5375C18.2502 11.65 11.7377 11.65 6.70016 15.5375C6.28766 15.85 5.70016 15.775 5.38766 15.375C5.07516 14.9625 5.15016 14.375 5.55016 14.0625C11.2877 9.625 18.7002 9.625 24.4252 14.0625C24.8377 14.375 24.9127 14.9625 24.5877 15.375C24.4252 15.6125 24.1502 15.7375 23.8627 15.7375Z" fill="white"/>
<path d="M27.5002 11.3875C27.3002 11.3875 27.1002 11.325 26.9252 11.1875C19.6752 5.58753 10.3127 5.58753 3.07517 11.1875C2.66267 11.5 2.07516 11.425 1.76266 11.025C1.45016 10.6125 1.52515 10.025 1.92515 9.7125C9.86265 3.575 20.1252 3.575 28.0752 9.7125C28.4877 10.025 28.5627 10.6125 28.2377 11.025C28.0627 11.2625 27.7752 11.3875 27.5002 11.3875Z" fill="white"/>
<path d="M21.5125 20.3C21.3125 20.3 21.1125 20.2375 20.9375 20.1C17.3375 17.3125 12.675 17.3125 9.06247 20.1C8.64997 20.4125 8.06246 20.3376 7.74996 19.9376C7.43746 19.5251 7.51247 18.9375 7.91247 18.625C12.2125 15.3 17.775 15.3 22.075 18.625C22.4875 18.9375 22.5625 19.5251 22.2375 19.9376C22.0625 20.1751 21.7875 20.3 21.5125 20.3Z" fill="white"/>
<path d="M18.25 24.875C18.05 24.875 17.85 24.8125 17.675 24.675C16.05 23.4125 13.9375 23.4125 12.3125 24.675C11.9 24.9875 11.3125 24.9125 11 24.5125C10.6875 24.1 10.7625 23.5125 11.1625 23.2C13.4875 21.4 16.4875 21.4 18.8125 23.2C19.225 23.5125 19.3 24.1 18.975 24.5125C18.8125 24.7375 18.5375 24.875 18.25 24.875Z" fill="white"/>
</svg>
