<svg width="40" height="40" viewBox="0 0 40 40" fill="none" xmlns="http://www.w3.org/2000/svg">
<path d="M31.8166 20.9833C31.55 20.9833 31.2833 20.9 31.05 20.7167C24.3333 15.5333 15.65 15.5333 8.9333 20.7167C8.3833 21.1333 7.59997 21.0333 7.1833 20.5C6.76663 19.95 6.86664 19.1667 7.39997 18.75C15.05 12.8333 24.9333 12.8333 32.5666 18.75C33.1166 19.1667 33.2166 19.95 32.7833 20.5C32.5666 20.8166 32.2 20.9833 31.8166 20.9833Z" fill="white"/>
<path d="M36.6667 15.1833C36.4001 15.1833 36.1334 15.1 35.9 14.9167C26.2334 7.45004 13.7501 7.45004 4.10006 14.9167C3.55006 15.3334 2.76672 15.2334 2.35006 14.7C1.93339 14.15 2.03337 13.3667 2.56671 12.95C13.15 4.76667 26.8334 4.76667 37.4334 12.95C37.9834 13.3667 38.0834 14.15 37.65 14.7C37.4167 15.0167 37.0334 15.1833 36.6667 15.1833Z" fill="white"/>
<path d="M28.6835 27.0666C28.4168 27.0666 28.1501 26.9833 27.9168 26.8C23.1168 23.0833 16.9001 23.0833 12.0835 26.8C11.5335 27.2166 10.7501 27.1167 10.3334 26.5833C9.91678 26.0333 10.0168 25.25 10.5501 24.8333C16.2835 20.4 23.7001 20.4 29.4335 24.8333C29.9835 25.25 30.0834 26.0333 29.6501 26.5833C29.4168 26.9 29.0501 27.0666 28.6835 27.0666Z" fill="white"/>
<path d="M24.3336 33.1666C24.067 33.1666 23.8003 33.0833 23.5669 32.9C21.4003 31.2166 18.5836 31.2166 16.417 32.9C15.867 33.3166 15.0836 33.2166 14.667 32.6833C14.2503 32.1333 14.3503 31.35 14.8836 30.9333C17.9836 28.5333 21.9836 28.5333 25.0836 30.9333C25.6336 31.35 25.7336 32.1333 25.3003 32.6833C25.0836 32.9833 24.717 33.1666 24.3336 33.1666Z" fill="white"/>
</svg>
