<svg width="311" height="418" viewBox="0 0 311 418" fill="none" xmlns="http://www.w3.org/2000/svg">
<mask id="mask0_2504_4865" style="mask-type:luminance" maskUnits="userSpaceOnUse" x="0" y="0" width="311" height="418">
<path d="M311 0H0V417.929H311V0Z" fill="white"/>
</mask>
<g mask="url(#mask0_2504_4865)">
<mask id="mask1_2504_4865" style="mask-type:luminance" maskUnits="userSpaceOnUse" x="-894" y="-896" width="10893" height="59612">
<path d="M9998.22 -895.905H-893.561V58715.5H9998.22V-895.905Z" fill="white"/>
</mask>
<g mask="url(#mask1_2504_4865)">
<path d="M73.744 342.363C73.9002 359.914 73.7961 377.412 73.7961 394.962C73.7961 396.525 73.9002 398.087 74.0044 400.17H74.1085V338.562C73.8481 339.759 73.6919 341.009 73.6919 342.363" fill="white"/>
<path d="M189.722 92.1785C188.68 93.168 187.847 94.2095 187.17 95.2511V351.581C190.816 347.988 194.409 344.342 198.054 340.749C199.252 339.551 200.242 338.353 200.919 337.051V81.0337C197.169 84.7313 193.472 88.4809 189.722 92.1785Z" fill="white"/>
<path d="M200.971 81.0853V337.103C201.023 336.999 201.127 336.842 201.179 336.686V80.877C201.127 80.929 201.075 80.9811 200.971 81.0853Z" fill="white"/>
<path d="M164.673 245.654V374.131C169.256 369.548 173.839 364.965 178.421 360.33V226.02C175.14 233.103 170.61 239.665 164.673 245.654Z" fill="white"/>
<path d="M186.91 95.7718V351.893C187.014 351.789 187.118 351.685 187.222 351.581V95.251C187.118 95.4072 187.014 95.6155 186.91 95.7718Z" fill="white"/>
<path d="M178.422 226.072V360.382C178.474 360.33 178.578 360.278 178.631 360.174V225.603C178.578 225.759 178.526 225.915 178.422 226.072Z" fill="white"/>
<path d="M142.122 268.203V396.785C142.539 396.42 142.956 396.056 143.424 395.587C147.591 391.369 151.757 387.203 155.871 383.036V254.507C151.288 259.09 146.705 263.673 142.122 268.256" fill="white"/>
<path d="M164.517 245.81C164.465 245.862 164.413 245.914 164.361 245.966V374.391C164.465 374.287 164.569 374.183 164.673 374.079V245.602C164.621 245.654 164.569 245.706 164.517 245.758" fill="white"/>
<path d="M155.871 254.455V382.984C155.924 382.932 156.028 382.88 156.08 382.776V254.247C156.028 254.299 155.976 254.351 155.871 254.455Z" fill="white"/>
<path d="M119.573 290.702V400.17C123.739 400.17 127.906 400.222 132.072 400.274C132.541 400.274 132.905 400.274 133.322 400.274V277.005C128.739 281.588 124.156 286.171 119.573 290.754" fill="white"/>
<path d="M141.81 268.464V396.993C141.914 396.889 142.019 396.837 142.123 396.733V268.151C142.019 268.256 141.914 268.36 141.81 268.464Z" fill="white"/>
<path d="M133.321 276.952V400.222H133.529V276.744C133.477 276.796 133.425 276.848 133.321 276.952Z" fill="white"/>
<path d="M97.0227 313.043V400.118C101.658 400.118 106.241 400.118 110.771 400.118V299.346C106.189 303.877 101.606 308.46 97.0227 312.991" fill="white"/>
<path d="M119.26 291.014V400.17H119.572V290.701C119.468 290.805 119.364 290.909 119.26 291.014Z" fill="white"/>
<path d="M110.772 299.398V400.118H110.98V299.19C110.928 299.242 110.876 299.294 110.772 299.398Z" fill="white"/>
<path d="M88.2736 321.792C84.8885 325.125 81.5555 328.458 78.1704 331.791C76.0873 333.874 74.7853 336.009 74.1604 338.561V400.17C78.8995 400.17 83.5866 400.17 88.2216 400.17V321.792H88.2736Z" fill="white"/>
<path d="M96.7111 313.355V400.118H97.0235V313.043C96.9194 313.147 96.8152 313.251 96.7111 313.355Z" fill="white"/>
<path d="M88.2731 321.792V400.17H88.4814V321.584C88.4293 321.636 88.3772 321.688 88.2731 321.792Z" fill="white"/>
<path d="M209.72 72.3882V206.49C213.053 199.512 217.584 193.002 223.469 187.065V58.7437C218.886 63.3266 214.303 67.8574 209.72 72.3882Z" fill="white"/>
<path d="M209.409 72.7011V207.168C209.513 206.959 209.617 206.699 209.773 206.491V72.3887C209.669 72.4928 209.565 72.597 209.409 72.7532" fill="white"/>
<path d="M223.47 58.6919V187.065C223.522 187.013 223.626 186.909 223.678 186.857V58.5356C223.626 58.5877 223.574 58.6398 223.47 58.744" fill="white"/>
<path d="M245.655 36.5589C241.229 41.0376 236.75 45.4643 232.271 49.943V178.316C236.854 173.733 241.437 169.203 246.02 164.62V36.1943C245.916 36.2985 245.759 36.4026 245.655 36.5068" fill="white"/>
<path d="M231.906 50.2552V178.628C232.01 178.524 232.114 178.368 232.271 178.264V49.8906C232.166 49.9948 232.062 50.0989 231.906 50.2552Z" fill="white"/>
<path d="M245.967 36.2459V164.671C246.019 164.619 246.124 164.515 246.176 164.463V36.0376C246.124 36.0897 246.071 36.1417 245.967 36.2459Z" fill="white"/>
<path d="M254.768 32.8091V155.87C259.351 151.34 263.934 146.757 268.517 142.226V32.8611C263.934 32.8611 259.351 32.8612 254.768 32.8091Z" fill="white"/>
<path d="M254.455 32.8089H254.403V156.183C254.507 156.078 254.611 155.974 254.767 155.818V32.7568H254.507L254.455 32.8089Z" fill="white"/>
<path d="M268.518 32.8608V142.225C268.57 142.173 268.674 142.069 268.726 142.017V32.8608H268.518Z" fill="white"/>
<path d="M277.265 32.9131V133.529C281.848 128.998 286.431 124.415 291.014 119.884V32.9131H277.265Z" fill="white"/>
<path d="M276.954 32.9129V133.841C277.058 133.737 277.162 133.633 277.318 133.476V32.8608H276.954" fill="white"/>
<path d="M309.451 101.552C312.263 98.7921 313.669 95.9278 313.617 91.9178C313.461 73.8986 313.565 55.8795 313.565 37.8604C313.565 36.3501 313.357 34.7877 313.2 32.8608H299.816V111.083C303.045 107.906 306.222 104.677 309.451 101.5" fill="white"/>
<path d="M291.015 32.9131V119.884C291.067 119.832 291.171 119.728 291.223 119.676V32.9652H291.015V32.9131Z" fill="white"/>
<path d="M299.451 111.499C299.555 111.395 299.659 111.291 299.816 111.135V32.9131H299.451V111.499Z" fill="white"/>
<path d="M24.9463 91.606C24.9463 92.283 24.9463 92.9601 25.0504 93.585V78.7427C25.0504 83.0131 24.9984 87.3356 24.9463 91.606Z" fill="#397EF5"/>
<path d="M154.361 212.948C154.205 187.481 154.101 161.963 153.892 136.549V216.177C153.945 216.177 153.945 216.229 153.997 216.281C154.205 214.198 154.361 213.573 154.361 212.948Z" fill="#397EF5"/>
<path d="M25.0497 48.9014V78.7423C25.1018 68.7953 25.0497 58.8483 25.0497 48.9014Z" fill="#397EF5"/>
<path d="M29.6342 101.918C32.863 104.887 36.144 107.907 39.3728 110.876V32.8623C36.9772 32.8623 34.5295 32.8623 32.1339 32.8623H25.0513V48.8504C25.0513 58.7974 25.0513 68.7443 25.0513 78.6913V93.5336C25.4158 96.9187 26.9261 99.4706 29.5821 101.918" fill="#397EF5"/>
<path d="M39.3726 32.9131V110.927C39.4246 110.979 39.5288 111.031 39.5809 111.083V32.9131H39.3726Z" fill="#397EF5"/>
<path d="M48.2772 32.8608V119.051C52.9122 123.321 57.5993 127.591 62.2342 131.914V32.8608H48.2772Z" fill="#397EF5"/>
<path d="M47.9136 32.8608V118.738C48.0177 118.842 48.1219 118.946 48.2781 119.051V32.8608H47.9136Z" fill="#397EF5"/>
<path d="M62.235 32.8608V131.914C62.2871 131.966 62.3912 132.018 62.4433 132.07V32.8608H62.235Z" fill="#397EF5"/>
<path d="M71.1395 32.9131C75.5141 32.9131 79.8366 32.9652 84.2112 33.0693C84.4716 33.0693 84.7841 33.0693 85.0965 33.1214" fill="#397EF5"/>
<path d="M84.2112 33.0693C79.8366 33.0172 75.5141 32.9652 71.1395 32.9131V140.143C75.7745 144.413 80.4095 148.683 85.0965 152.954V33.1214C84.8361 33.1214 84.5237 33.0693 84.2112 33.0693Z" fill="#397EF5"/>
<path d="M70.776 32.9131V139.83C70.8802 139.934 70.9843 140.038 71.1405 140.143V32.9131H70.776Z" fill="#397EF5"/>
<path d="M85.3113 153.168C85.2578 153.114 85.1509 153.061 85.0974 152.954L85.3113 153.168Z" fill="#397EF5"/>
<path d="M85.0974 33.1216V152.954C85.1495 153.006 85.2537 153.058 85.3057 153.162V33.1737C85.2537 33.1737 85.1495 33.1737 85.0974 33.1737" fill="#397EF5"/>
<path d="M94.002 37.9126C98.689 42.4955 103.324 47.0784 107.959 51.7134L94.002 37.9126Z" fill="#397EF5"/>
<path d="M94.002 37.9126V161.182C98.6369 165.453 103.272 169.775 107.959 174.046V51.7134C103.324 47.1305 98.689 42.4955 94.002 37.9126Z" fill="#397EF5"/>
<path d="M93.6384 37.5479C93.7441 37.6535 93.8498 37.7592 94.0083 37.9178L93.6384 37.5479Z" fill="#397EF5"/>
<path d="M94.0083 161.187C93.9026 161.081 93.797 160.975 93.6384 160.87L94.0083 161.187Z" fill="#397EF5"/>
<path d="M93.6384 37.5482V160.818C93.7426 160.922 93.8467 161.026 94.003 161.13V37.8606C93.8988 37.7565 93.7947 37.6523 93.6384 37.4961" fill="#397EF5"/>
<path d="M107.959 51.7134C108.013 51.7668 108.12 51.8738 108.173 51.9273L107.959 51.7134Z" fill="#397EF5"/>
<path d="M108.173 174.208C108.12 174.154 108.013 174.101 107.959 173.994L108.173 174.208Z" fill="#397EF5"/>
<path d="M107.959 51.7134V174.046C108.011 174.098 108.116 174.15 108.168 174.254V51.9217C108.116 51.8696 108.011 51.8175 107.959 51.7134Z" fill="#397EF5"/>
<path d="M116.864 60.5146C121.551 65.1496 126.186 69.7846 130.821 74.4717L116.864 60.5146Z" fill="#397EF5"/>
<path d="M116.864 60.5146V182.274C121.499 186.544 126.134 190.815 130.821 195.137V74.5237C126.186 69.8367 121.551 65.2017 116.864 60.5667" fill="#397EF5"/>
<path d="M116.501 60.1504C116.606 60.2561 116.712 60.3618 116.871 60.5203L116.501 60.1504Z" fill="#397EF5"/>
<path d="M116.871 182.227C116.765 182.121 116.659 182.015 116.501 181.91L116.871 182.227Z" fill="#397EF5"/>
<path d="M116.501 60.1502V181.91C116.605 182.014 116.709 182.118 116.865 182.222V60.4627C116.761 60.3585 116.657 60.2544 116.501 60.0981" fill="#397EF5"/>
<path d="M139.726 83.4292C143.163 86.8664 146.601 90.3035 150.038 93.7928C151.965 95.7197 153.527 99.0006 153.579 101.709C153.683 113.322 153.787 124.936 153.892 136.549" fill="#397EF5"/>
<path d="M153.528 101.657C153.528 99.001 151.913 95.72 149.986 93.7411C146.549 90.3039 143.112 86.8667 139.675 83.3774V203.262L153.84 222.375V136.497C153.736 124.884 153.632 113.27 153.476 101.657" fill="#397EF5"/>
<path d="M130.822 74.4722C130.875 74.5256 130.982 74.6325 131.036 74.686L130.822 74.4722Z" fill="#397EF5"/>
<path d="M131.036 195.299C130.982 195.246 130.875 195.192 130.822 195.085L131.036 195.299Z" fill="#050953"/>
<path d="M130.822 74.4722V195.086C130.874 195.138 130.978 195.242 131.03 195.294V74.6805C130.978 74.6284 130.874 74.5242 130.822 74.4722Z" fill="#397EF5"/>
<path d="M139.733 203.318C139.627 203.212 139.521 203.107 139.363 203.001L139.733 203.318Z" fill="#050953"/>
<path d="M139.363 83.0645C139.468 83.1701 139.574 83.2758 139.733 83.4344L139.363 83.0645Z" fill="#397EF5"/>
<path d="M139.363 203.001C139.467 203.105 139.571 203.209 139.727 203.313V83.429C139.623 83.3249 139.519 83.1686 139.363 83.0645V203.001Z" fill="#397EF5"/>
</g>
</g>
</svg>
