<svg width="134" height="63" viewBox="0 0 134 63" fill="none" xmlns="http://www.w3.org/2000/svg">
<g clip-path="url(#clip0_2710_2566)">
<path d="M22.7793 52.45L26.5823 60.1254C25.1076 61.3665 21.379 62.983 16.5905 62.983C7.64187 62.9854 0 56.2414 0 47.0227C0 37.8039 7.60829 30.9722 16.5929 30.9722C21.3814 30.9722 25.11 32.5838 26.5847 33.8248L22.7817 41.5002C21.1176 40.5371 19.2449 40.008 17.3291 39.9568C11.5048 39.9568 9.66323 43.7677 9.66323 46.952C9.66323 50.1362 11.5048 53.9959 17.3291 53.9959C19.2449 53.9447 21.1176 53.4131 22.7817 52.4476L22.7793 52.45Z" fill="white"/>
<path d="M55.8669 31.5303V50.3871C55.8669 58.0162 51.4453 62.9998 43.2088 62.9998C34.9723 62.9998 30.5051 58.0137 30.5051 50.3871V31.5303H39.4106V49.8751C39.4106 53.3129 40.6311 54.7905 43.2136 54.7905C45.7961 54.7905 46.9614 53.3154 46.9614 49.8751V31.5303H55.8669Z" fill="white"/>
<path d="M74.486 31.5303C80.0106 31.5303 83.8759 35.2729 83.8759 41.2635C83.8759 47.2541 80.423 49.5021 78.1667 49.997L85.4393 62.4219H75.4524L69.7887 51.8208V62.4219H60.8832V31.5327H74.486V31.5303ZM71.2658 44.5648C72.8771 44.5648 74.7186 44.0064 74.7186 41.556C74.7186 39.1057 72.9442 38.5473 71.3377 38.5473H69.7959V44.5379L71.2658 44.5648Z" fill="white"/>
<path d="M98.1981 31.5303V62.4195H89.2926V31.5303H98.1981Z" fill="white"/>
<path d="M118.045 30.9209C127.238 30.9209 134 37.8965 134 46.908C134 55.9195 127.509 62.9366 118.05 62.9366C108.59 62.9366 102.104 55.9415 102.104 46.908C102.104 37.8746 109.003 30.9209 118.045 30.9209ZM118.045 54.4615C122.073 54.4615 124.718 51.07 124.718 46.9056C124.718 42.7412 122.073 39.3472 118.045 39.3472C114.017 39.3472 111.396 42.7631 111.396 46.9056C111.396 51.048 114.04 54.4615 118.045 54.4615Z" fill="white"/>
<path d="M11.7326 19.042H22.024V23.5623H2.89661L13.8882 5.47838H4.45759V0.958008H22.753L11.7326 19.0395V19.042Z" fill="white"/>
<path d="M29.2991 16.1918C29.2991 18.9592 30.0256 20.0271 32.0206 20.0271C34.0156 20.0271 34.7421 18.9592 34.7421 16.1918V9.50635H39.5114V17.3695C39.5114 22.0825 37.1951 23.972 32.0206 23.972C26.8461 23.972 24.5298 22.0825 24.5298 17.3695V9.50635H29.2991V16.1918Z" fill="white"/>
<path d="M51.7691 23.9721C49.882 23.9721 48.2658 23.1236 47.242 21.9728H47.1892V23.5625H42.4751V0H47.2444V10.8499C48.3761 9.72588 49.9108 9.09683 51.7715 9.09683C55.8118 9.09683 58.6412 12.4396 58.6412 16.5479C58.6412 20.6562 55.8118 23.9721 51.7715 23.9721H51.7691ZM50.34 13.232C48.5608 13.232 47.1341 14.6022 47.1341 16.5479C47.1341 18.4936 48.4816 19.8346 50.34 19.8346C52.1983 19.8346 53.5722 18.4643 53.5722 16.5479C53.5722 14.6315 52.1455 13.232 50.34 13.232Z" fill="white"/>
<path d="M60.8735 9.50629H65.6428V11.5324H65.6956C65.6956 11.5324 67.2038 9.09424 69.9253 9.09424C71.7045 9.09424 72.9442 9.96954 72.9442 9.96954L70.9516 14.0779C70.9516 14.0779 70.062 13.3098 68.4722 13.3098C65.9929 13.3098 65.6428 15.8041 65.6428 16.1601V23.5575H60.8735V9.50385V9.50629Z" fill="white"/>
</g>
<defs>
<clipPath id="clip0_2710_2566">
<rect width="134" height="63" fill="white"/>
</clipPath>
</defs>
</svg>
